<svg id="e0885293-b698-46e2-a2f4-8d82db61f031" data-name="Layer 2" xmlns="http://www.w3.org/2000/svg" viewBox="0 0 723.75 555.5">
<defs>
<style>
.a52c0e7a-35cd-4501-bf1d-3b1754ce9c54{fill:#c9c9c9;}
.a52c0e7a-35cd-4501-bf1d-3b1754ce9c54:hover{fill:pink;}
.fd37cb5b-70a3-49fd-ba85-f530ae217c35{fill:#adc7e8;}
.a08c7f2c-7dc6-4312-97e7-5cffc31b5837{font-size:12px;fill:#231f20;font-family:NotoSansKR-Bold-KSCpc-EUC-H, Noto Sans KR;}
</style>
</defs>
<polygon class="a52c0e7a-35cd-4501-bf1d-3b1754ce9c54 seoulbabo" points="365.658 153.522 369.025 158.96 372.923 165.714 373.993 171.108 374.451 175.919 380.167 183.194 378.738 187.767 378.529 191.73 380.144 193.612 379.571 195.901 381.302 200.352 380.587 204.283 366.357 210.89 364.389 214.827 370.093 219.308 379.083 220.335 382.891 225.666 391.772 227.716 400.357 226.007 407.335 225.342 407.025 231.534 411.869 237.992 415.664 241.516 416.441 247.216 418.294 250.08 422.877 247.897 425.418 248.659 428.75 247.271 433.754 251.336 435.568 256.002 436.289 256.928 439.259 254.75 442.632 254.75 449.879 249.919 457.607 242.19 463.943 235.058 465.402 227.761 469.784 227.087 472.249 217.064 477.471 215.475 481.356 217.417 483.485 217.417 488.298 209.397 493.649 207.103 501.997 206.582 504.185 206.703 509.504 197.887 514.741 198.068 523.682 192.159 524.443 188.984 522.942 184.484 521.481 181.47 517.957 182.588 514.912 183.25 508.977 183.398 507.103 179.796 502.023 176.514 497.515 172.634 488.354 162.504 487.411 163.441 483.527 166.412 482.073 170.775 476.746 176.621 470.23 182.413 468.664 185.808 453.525 194.639 454.542 188.199 449.828 187.293 441.948 189.657 432.322 182.311 428.244 182.791 421.833 179.687 415.956 175.146 413.721 167.879 414.339 163.141 407.177 161.386 399.474 158.199 395.892 152.314 392.157 149.824 390.066 146.571 386.058 145.628 381.034 141.398 374.01 134.844 363.5 140.625 361.375 143.875 360.676 143.654 361.65 149.985 365.658 153.522"/>
<polygon class="a52c0e7a-35cd-4501-bf1d-3b1754ce9c54" points="387.442 142.872 391.934 143.929 394.343 147.676 398.108 150.186 401.526 155.801 408.216 158.569 417.661 160.859 416.779 167.621 418.544 173.354 423.541 177.216 428.756 179.71 433.178 179.19 442.552 186.343 449.672 184.208 457.958 185.801 457.475 188.861 466.336 183.692 467.769 180.587 474.693 174.432 479.427 169.225 480.973 164.588 485.51 161.119 486.313 160.315 481.961 153.89 476.4 150.832 476.365 150.987 475.978 150.6 475.611 150.398 475.67 150.292 472.439 147.061 466.313 140.419 460.172 132.484 457.448 125.056 453.607 120.989 446.558 117.716 441.041 111 434.918 110.963 428.726 109.556 425.66 103.424 426.47 100.185 424.717 99.527 425.279 82.371 428.048 80.756 427.226 77.053 428.079 71.362 431.657 67.068 431.308 64.969 429.297 60.948 424.421 56.842 422.187 48.403 415.843 43.835 414.514 33.198 411.375 32.75 408.5 33.375 406.5 35.25 403.125 34.375 400.375 35 398 36.5 396.25 38.5 393.125 42.5 390.875 43.375 389.125 44.75 389.75 47.875 391.375 52.25 392.875 60.625 391.75 72.75 380.875 78.875 377.375 87.625 370.375 92.75 367.875 93.75 368 96.875 370.625 98.5 371.375 103.25 376.75 114 374.125 120.625 377.5 122.5 379 126.5 376.344 132.919 383.023 139.153 387.442 142.872"/>
<path class="a52c0e7a-35cd-4501-bf1d-3b1754ce9c54" d="M510.44379,582.91314l12.8814,10.581,15.6665-16.7524,2.167-5.8511,7.0068,3.8657.7222,4.76808,7.2075-.99458.8496-3.25642,1.523-1.52288,1.7851-5.8667,2.8809,2.8808,2.5078-.4477-.3481-3.10452v-5.07028l5.8598-6.5928,8.6011-5.2656,3.9844-.6929,3.0908-1.124,1.2178-1.7715-.378-2.2666-1.6255-4.4722,2.9576-2.74612,2.1982-2.998h4.13769l1.3867-2.01658,3.3687-4.4937,3.4551-.768,2.3945-.8379.5337-3.6035.4541-4.8658-1.7959-4.081-.1719-6.8789-1.2197-8.8882,3.0527-5.9019,5.0479-.9712,4.7236-1.0336,3.6123-5.15972h3.1504l6.29742-1.10208,3.78508-2.0503,3.0313-1.84962,7.0625-3.61418-.08988-.586-4.541-4.63182-1.375-7.125-5.375-7-6.375-4.125-.75-7.25-3-2.375-5.625-8.5-5.75-4.875c-6.5-.375-11.875-8.5-11.875-8.5l-13.875,8.125-3.125,6.5c-4.875,5.25-10,2.625-10,2.625l-14.625,10-5.25.875c-7.625,5.5-17.875-4.75-17.875-4.75l-2.375-.375-.625,1.375-.375,2,1.375,1.625,2.125,2.75-.125,2.25v2.25l.625,1.375,1.375,3,.375,1.625-.75.875-.375,3.375.375,1.5.5,1.5-.5,2.125-2,1.25-1.5,1.75-2.5,3.25-.5,2.75,1.25,1.875,2.75,3.5-.25,4.25-.75,2.125-2.25,2-.5,1.125-.125,2,.875,1.625.625,1.375-2.375,1.625-1.875,2.375-1.625,2.375-2.625,2.75-.375,2.625-.875,4.5-1.125,1.125-.125,1.875,1,1.875,1.25,2,.625,3.75-.375,1.875-1.125.75-.375,1.625.75,1.625,1,1.75.125,1.5-1,1-1.875,1.625-.25,3.25,1.5,3.625v1.625l-.625,1.5.375,1.75,1.375,2-.375,2.5-2.25,1.375-1.75,2.25.125,5.125.5,2-3.375,1-3.125.375-1-.875-2.875-.25-1.875,2.25-1.5.375-1.375-1.75h-1.875l-2.375.25-1.25-1.125-1.125-2.375.125-2.125,2.375-2.375-.875-1.5-2.5-2.125-1.75,1.25-3,4-2.05961,1.79742,11.399,11.0864Z" transform="translate(-286.125 -334.12842)"/>

<polygon class="a52c0e7a-35cd-4501-bf1d-3b1754ce9c54" points="180.213 269.201 190.195 276.188 197.091 281.568 206.388 288.374 215.269 294.244 223.536 300.831 230.434 307.401 238.935 312.91 247.102 319.41 257.518 326.731 262.95 328.541 269 327 274.965 326.084 282.233 325.907 286.724 328.602 292.45 331.465 295.214 330.543 300.148 331.364 303.307 335.345 308.351 344.247 308.375 344.185 309.41 344.584 309.441 344.584 313.548 344.255 319.667 343.94 321.843 342.445 328.671 334.967 332.498 329.706 334.589 323.953 337.426 322.003 341.079 316.744 340.694 314.693 340.02 310.488 339.265 304.64 342.08 301.156 338.799 299.209 334.677 300.407 329.01 301.074 322.968 302.078 306.281 303.565 299.354 305.593 294.614 305.403 284.821 300.421 278.176 297.294 279.053 291.812 280.467 288.725 277.61 286.582 261.651 280.638 260.1 278.051 244.877 270.071 236.043 262.738 236.261 262.476 222.383 251.076 212.185 242.216 200.548 230.901 198 233.125 197.25 238.125 192.625 241.5 192.375 244.375 194 245.25 194 248.625 193.25 249.25 192.25 252.75 189.25 254.125 183.5 256.375 175.375 258.75 170.08 261.907 171.195 262.688 180.213 269.201"/>

<path class="a52c0e7a-35cd-4501-bf1d-3b1754ce9c54" d="M858.11328,503.70954l-4.7168,2.83-6.707,4.1162-2.8887-4.2485-3.1494-3.7783-2.7715.47748c-.0117.002-2.3877.39312-4.7656.77692-1.1914.1924-2.3829.3828-3.2774.5215-.4892.0761-.91988.143-1.29388.1743-.42582.2378-.97662.5029-1.667.8354-1.14942.5537-2.68462,1.2876-4.21972,2.0205-2.7364,1.3062-5.4756,2.60838-6.0342,2.8741l-6.20608,4.2075,1.46678,3.0542,1.8027,5.4072-.0488.2012,1.90432,19.0346-4.39742,7.5381.4755,10.3374,1.2998,7.4463,3.9034,5.5093,6.6269,12.4453,1.9404,7.2446-.5087,6.98979.3613,3.2529,4.4014.8003,8.538.9722,9.65042-.3662,9.63478-1.8067,4.9004-2.8681,2.0849-1.3462-.07708-2.85941.625-1.25,2.625-3.875.875-2.125.25-2.5,1-1.125,2.625-1.375,2.375-1.75,3.375-1.75,1.25-3.875,1.125-4.625,1-4,2-4.5,1-2.5,3.25-2,1.75-1,1.75-1.625.375-2.375-.5-3.375-1.5-3.25-1.625-2.375.875-1.875,2-2.75,2.375-2.75.625-2.75.25-5.125-.625-2.5-1.75-2.875-.25-1.625,1.375-1.875-.375-3.5-.125-4.5-.25-3.75-.25-2.125-3.125-2.875s-4.125-1.625-4.5-1.75-4.25-1.25-4.25-1.25l-5.75.625-2.44142-.66548-6.8232,2.6352Z" transform="translate(-286.125 -334.12842)"/>

<polygon class="a52c0e7a-35cd-4501-bf1d-3b1754ce9c54" points="418.657 42.165 424.812 46.597 427.079 55.158 431.703 59.052 434.192 64.031 434.843 67.932 430.921 72.638 430.274 76.947 431.452 82.244 428.221 84.129 427.783 97.473 430.03 98.315 428.84 103.076 430.774 106.944 435.418 108 442.459 108 448.442 115.284 455.393 118.511 460.052 123.444 462.828 131.016 468.646 138.53 474.634 145.015 476.348 137.399 481.095 130.278 479.946 126.833 484.335 124.2 486.05 120.525 490.468 117.211 495.53 123.052 495.808 119.838 496.75 116.54 496.75 114.385 494.044 109.465 493.251 102.544 493.012 94.405 488.777 86.685 488.027 76.433 483.429 68.002 485.822 55.041 488.032 48.165 489.253 39.373 489.501 31.453 489.763 27.052 489.923 25.851 489.25 24 489.125 20.875 488.625 18.125 487.5 15.25 485.75 12 484.375 12.375 482.625 13.75 480.5 15.125 478.625 14.125 477 12.25 474.5 10.25 473.125 10.875 470.125 13.125 468.375 15.625 465.625 16.875 461.125 17.375 460 19.375 458.125 19.875 457.25 18.375 456.375 15.875 455.625 13.375 454.125 9.25 452.75 6 450.25 2.625 446.625 0.875 442.75 0 438.25 1.375 430.125 3.125 425.875 4.5 421.875 5.625 419.25 7.875 417.25 12.125 416.375 15 415.75 18.5 414.625 22.5 415 24.375 416.5 26.75 417.625 29.5 416.974 30.847 417.238 30.814 418.657 42.165"/>
<path class="a52c0e7a-35cd-4501-bf1d-3b1754ce9c54" d="M778.62208,365.71634l-.2617,8.1186-1.3077,9.25248-2.21968,6.90772-2.13672,11.63128,4.4014,8.06892.75,10.248,4.2656,7.7803.2588,8.7964.709,6.1436,2.79392,5.0795v3.34528l-1.01562,3.55612-.7647,9.9317-7.9375-9.1592-1.582,1.186-1.78518,3.8257-3.11132,1.86668.8516,2.55472-5.253,7.8789-2.0664,9.1846,6.9532,3.8247,4.9785,7.3496.0976-.0879,10.5567,11.6753,4.2256,3.622,5.499,3.5352,1.3769,2.648,3.9151-.0977,2.542-.5781,5.2226-1.6617,6.6533-4.49462c3.6885-1.75288,8.9307-4.25188,11.1387-5.32078l-.0439-.1787,2.6631-.8896.09272.227c1.87108-.2881,5.72458-.9145,8.29978-1.33792l4.4668-.77048,4.3916,5.2822,1.3203,1.941,4.2803-2.626,5.2959-3.1778,7.1279-.7636,3.3116-1.30132,1.3633-.52288,1.18552-1.58112.125-3.5,1.25-2.5.75-1.625,1.375-2.125,3.25-2,2.125-2.125,1.25-2,1.375-1.75.75-5.625.25-2.125v-3.875l-.25-3.875-.25-3.75-1-3.25-2.625-2.875-4.75-3.375s-5.25-2.25-5.625-2.25-2.875-.375-2.875-.375l-2.625.25-2.875.5-3.25.5-4.25-.25-2.125-3.875-2.25-3,1.125-.75.75-2.125.625-1.75.5-2.25-1-4.5-2.375-1.25.125-2.375-.75-2-.125-3.5.5-1.375,1.25-1.75,1.375-1.75,1.875-2.5-.5-2.5-.375-5,.875-1.125.875-2,1-2.5.5-2.25v-2.625l-1.75-3.125-2.125-2.5-.25-2.375-.625-2.5-.875-1.75-1.5-2.25-.25-2.875,1.375-2.25,1.5-2.25,1.625-2.875,2.5-3.375.375-2.375-.5-3.75-1-2.625-2.75-1.125-3.25-1.375-3.125.5-4-.875-3.125-1.375-1.75-3.25-.5-1.75-1.875-3.5-3-3.75-4.5-.5-3.125.75-2.5.5-4.125,2-2.125,1.125-3.25.5-3-.25-2.875-.625-5.375-1.125-2.875.625-.5,1.625-1,2.375-2.125,2.75-3.75,2.375-2.5,1.75-2.25,1.25-2.25.5-2.04882,1.84422-.2071,1.5489Z" transform="translate(-286.125 -334.12842)"/>
<g>
<polygon class="a52c0e7a-35cd-4501-bf1d-3b1754ce9c54" points="572.408 271.301 561.932 273.249 551.943 273.628 543.08 272.615 539.75 272.012 536.601 278.528 530.573 289.831 529.236 292.506 531.392 293.691 530.699 298.198 530.602 298.398 523.477 313.273 510.857 340.138 507.055 349.051 511.878 351.512 523.225 356.198 538.545 360.12 543.086 360.001 550.321 359.76 559.029 356.393 565.781 346.698 574.352 340.145 581.758 331.874 588.238 324.04 591.721 321.486 594.223 316.938 595.832 310.886 599.752 299.668 602.284 295.87 601.666 295.558 599.875 293 596.75 291.5 594.125 293.375 591.375 295.25 586.75 299.125 585.125 297.75 582.875 295.5 579.625 293.25 579.5 291.125 580.375 286.875 581.75 281.375 582.875 275.625 583.75 271.625 583.125 268.5 580.875 266.5 580.473 266.419 577.813 268.135 572.408 271.301"/>
</g>
<g>
<polygon class="a52c0e7a-35cd-4501-bf1d-3b1754ce9c54" points="346.281 288.348 346.531 283.348 350.18 279.699 349.867 276.89 346.803 275.932 338.742 273.592 328.531 264.166 324.555 256.214 331.046 252.06 330.24 248.633 330.528 243.456 333.368 239.741 330.834 236.362 329.687 229.771 331.084 226.977 332.282 222.188 332.894 218.718 328.526 213.953 323.374 215.468 322.72 205.326 324.694 202.473 319.915 195.105 318.161 195.715 315.702 196.261 313.035 199.817 310.79 203.084 306.595 203.084 305.022 205.183 303.418 206.673 304.481 209.671 305.081 213.268 302.632 216.83 298.258 218.396 294.707 219.013 286.975 223.747 282.168 229.154 282.168 232.998 282.82 238.647 275.994 239.865 275.542 239.413 274.994 241.213 273.517 242.69 272.367 247.1 260.24 248.772 259.296 242.54 256.636 241.073 255.47 244.222 239.284 261.529 246.67 267.661 262.237 275.783 263.685 278.196 279.06 283.919 284.203 287.776 281.95 292.69 281.494 295.54 286.14 297.727 295.389 302.431 298.983 302.575 305.868 300.59 322.644 299.095 328.588 298.105 334.198 297.443 339.204 295.96 340.012 296.44 342.291 292.338 346.281 288.348"/>
</g>

<polygon class="a52c0e7a-35cd-4501-bf1d-3b1754ce9c54" points="324.395 356.452 325.777 362.495 327.933 368.5 330.372 370.398 334.571 371.696 337.506 372.908 341.707 375.029 343.878 376.581 352.192 379.679 361.515 383.506 371.273 386.597 376.843 386.898 381.927 384.278 389.375 379.644 399.527 373.153 405.009 370.019 407.07 365.58 412.085 360.065 415.985 357.081 423.071 353.46 427.274 345.722 430.775 340.74 427.855 339.344 423.643 340.478 418.686 338.97 416.676 333.542 416.521 328.421 414.325 326.347 411.559 322.844 411.093 318.655 407.315 316.389 401.915 318.14 396.867 320.751 391.646 320.751 389.227 314.607 385.872 311.398 374.683 307.616 367.941 308.48 365.566 306.783 361.302 307.067 357.01 308.547 353.605 312.197 350.656 307.526 348.222 305.092 344.624 302.779 342.405 305.528 342.989 310.059 343.649 314.18 344.258 317.424 339.577 324.165 337.081 325.881 335.172 331.128 330.943 336.929 323.685 344.82 320.668 346.894 316.012 347.132 318.29 348.011 324.395 356.452"/>

<polygon class="a52c0e7a-35cd-4501-bf1d-3b1754ce9c54" points="254.384 427.127 267.271 423.491 269.917 417.904 272.882 406.376 275.993 395.746 279.127 389.476 278.692 385.563 292.692 382.615 301.971 380.295 306.957 378.705 295.236 366.105 287.482 357.061 281.367 355.226 275.212 354.543 270.358 351.889 268.36 350.177 254.68 348.311 249.73 351.493 244.837 348.823 242.112 342.694 221.066 325.923 209.616 317.419 202.103 314.687 197.685 309.322 196.612 309.43 198.036 313.131 201.382 319.519 201.473 319.44 207.676 326.746 212.069 335.548 216.545 347.256 215.415 354.412 210.304 360.253 204.479 363.68 201.506 365.761 199.549 369.676 200.127 374.01 202.538 379.52 201.735 386.477 210.726 391.437 217.899 394.851 224.14 401.458 224.499 409.013 224.501 419.084 224.82 424.456 228.086 433.928 231.641 442.972 236.531 448.78 239.391 449.66 245.433 440.898 254.384 427.127"/>
<polygon class="a52c0e7a-35cd-4501-bf1d-3b1754ce9c54" points="629.747 372.464 615.02 367.104 606.501 363.029 606.501 356.296 612.561 347.205 613.442 340.746 611.259 337.199 602.324 332.136 599.292 339.181 589.686 355.41 586.559 363.403 583.373 365.526 578.843 371.452 573.373 372.478 568.543 376.985 561.069 380.862 548.783 384.246 539.861 384.933 529.887 382.273 522.293 383.116 521.856 385.737 524.144 398.146 525.441 407.228 529.311 413.48 536.437 415.649 549.373 418.964 575.005 426.72 589.469 437.051 597.937 451.616 607.907 466.239 613.968 474.669 620.147 485.401 620.5 485.666 620.5 483.375 622.5 482.625 625.125 485.375 631.75 486 634.625 485.625 640.875 484.25 641.5 483 638.875 479.875 634.25 479 630.125 475.625 629.875 470.125 633.125 468 642 472.875 645.625 472.75 658.125 463.375 659.375 460.75 661.5 456.75 663.375 453 663.875 449.875 667.125 449.25 670 446.25 670.375 443.125 680.25 434.625 680.375 426.375 681.375 425.375 681.625 421.375 682.875 420.25 681.875 416.25 679.625 414.625 677.375 410.125 675.5 410.375 674.375 412.25 672.25 411.375 670.875 408.25 665.375 403.625 663.75 405.625 662 408.375 656.25 410.125 648.875 406.625 648.625 404 647.875 401.75 646.25 398.625 648.375 391.375 651.125 389.375 650.5 386.125 652.418 385.544 645.184 379.032 629.747 372.464"/>

<polygon class="a52c0e7a-35cd-4501-bf1d-3b1754ce9c54" points="105.308 329.432 107.682 322.988 110.651 319.427 114.046 323.387 115.25 328.606 114.623 329.859 117.729 331.771 121.67 333.741 122.833 340.083 122.833 345.044 125.722 350.515 128.683 357.754 131.782 363.107 169.607 357.119 170.157 350.803 169.101 344.112 171.167 340.668 171.167 335.568 166.746 329.447 167.902 322.97 169.638 317.454 172.366 311.545 181.439 317.463 187.66 320.885 195.123 320.263 198.076 319.672 195.267 314.289 193.736 310.309 184.691 302.555 171.434 292.617 152.795 279.304 139.494 270.327 130.256 263.729 111.795 255.637 95.36 243.891 83.85 234.047 73.517 221.713 66.249 211.808 60.419 207.303 60.375 207.875 59.625 209.125 58.125 210.125 56.75 211.5 56.375 219.125 59.125 224 60.375 226.625 61.625 229.25 61.75 232.75 61.25 237 59 238 56.375 241.375 53.75 245.125 53.5 247.25 51.875 249.875 49.375 253.875 49.125 259.125 48.5 257.75 48.25 256.25 46.625 255.25 45.125 257.25 42.625 259.625 40 261.625 36.5 264.375 31.25 267.25 31.125 270.125 29.75 270.25 28.375 273 30 274.625 30.875 276.125 28.625 276.5 26 279.125 24.125 278.875 21.875 277.75 20.25 279.25 19.875 281.5 21.25 283.375 23.25 288.625 23.625 294.5 22.75 293.25 20.5 291.625 18.625 293.5 15.625 298.75 14.125 300.125 9.75 299.625 6.5 300 3.375 301.75 0.25 304.125 0 305.875 13.25 320 19.5 319.875 26.875 326 40.25 326.5 46.25 330.875 46.75 334.625 48.5 335.25 50.5 335.875 50.875 337.375 49.375 338.25 48.875 341 50.5 342.875 51.625 347.5 53 347.75 61.625 341.75 62 340.375 64.375 337.625 67 335.125 69.25 333.5 72.125 331.625 75.625 331.5 76.25 332.5 77.5 334.75 79.875 336 83.125 337.25 98.375 337 98.553 339.401 102.42 334.245 105.308 329.432"/>

<polygon class="a52c0e7a-35cd-4501-bf1d-3b1754ce9c54" points="111.269 400.941 116.075 401.815 116.458 406.809 120.433 411.394 122.911 413.872 125.799 412.188 129.921 408.699 132.685 405.244 136.462 403.185 140.179 399.839 145.287 400.519 148.347 398.377 153.943 396.778 157.301 399.129 161.634 398.046 165.51 403.538 174.845 399.294 171.966 407.932 172.769 409.376 174.985 408.884 179.883 409.863 182.594 408.878 184.84 404.467 190.84 397.133 198.562 387.804 199.464 379.981 197.209 374.824 196.453 369.158 199.163 363.739 202.907 361.124 208.365 357.913 212.587 353.088 213.457 347.578 209.293 336.688 205.075 328.253 200.008 322.341 195.458 323.245 187.007 323.949 179.848 320.007 173.634 315.954 172.403 318.623 170.794 323.773 169.921 328.719 174.167 334.598 174.167 341.498 172.233 344.722 173.177 350.697 172.393 359.715 130.218 366.393 125.945 358.985 122.973 351.72 119.833 345.79 119.833 340.223 118.997 335.759 116.214 334.36 110.711 330.975 112.084 328.229 111.288 324.779 110.683 324.073 110.318 324.512 107.953 330.855 104.867 335.983 98.867 343.983 98.763 343.905 98.875 349.375 102.625 354.375 103.125 356.75 104.375 358.375 106.75 359.5 108.875 360.5 109 366.125 106.625 368.25 105.375 371.375 104.75 376.625 104.125 382.5 102.625 385.375 101.25 386.75 101.25 390.125 102.75 390.75 103.5 392.125 104 395.875 102.25 395.75 101.375 398.5 102 401.125 102.696 401.403 102.788 400.255 111.269 400.941"/>

<polygon class="a52c0e7a-35cd-4501-bf1d-3b1754ce9c54" points="562.663 500.569 560.318 491.523 556.407 487.611 554.151 482.458 548.768 479.228 549.325 471.981 548.86 472.155 543.046 473.976 538.128 472.745 536.255 474.603 530.077 479.406 520.021 483.209 508.668 485.918 500.74 485.896 494.535 484.8 485.447 473.956 480.316 466.773 475.355 451.893 470.072 453.249 461.897 453.639 458.915 443.573 453.938 430.969 445.918 412.578 440.918 398.245 435.87 385.076 433.326 373.627 429.601 370.895 425.336 373.56 420.874 378.979 417.804 383.584 414.623 383.584 412.592 387.933 407.513 393.378 400.819 395.721 390.791 405.749 384.475 407.606 377.68 406.909 373.338 406.63 370.204 410.436 373.967 413.604 379.44 418.347 379.917 423.596 376.202 425.622 376.503 433.438 375.757 444.226 374.168 448.994 374.164 458.19 373.628 465.69 375.442 476.937 378.504 482.754 385.469 487.977 385.837 496.453 385.168 503.819 385.168 507.725 386.375 506.875 394.5 500.125 398.375 499.625 401.5 495.875 401.25 493.5 399.125 490.625 399.625 489 410 489.375 410.875 492.5 414.5 500.875 420 508.875 431.875 515.75 434 513.75 433.875 511.25 436.125 510.5 437.875 512.625 440.125 512.5 443.5 511 451.875 504.5 452.75 500.25 457.875 492 459.875 492.25 464.25 495.625 463.5 497.625 462.5 503.125 465.125 506.25 466 509.5 467.5 511.375 463.375 515.125 464.125 518 468.375 523.75 469 526.125 466.75 527.5 467.25 530.625 469.5 531.625 470 533.75 467.75 536.875 464.75 541.75 465.625 546.875 469.625 547.875 474.875 549.25 478.875 553.5 486.5 554.75 527.75 554.375 532.75 549.75 533.625 547.75 529.75 545.125 529.5 540.375 538.625 540.125 542.125 542.375 547.125 541.875 551.5 535.125 555.875 534.875 557.875 531.625 558.25 522.875 561.125 519.375 561.125 517 562.625 516.625 567.625 511.875 569.125 509.375 569.375 505.375 569.381 505.285 566.152 503.671 562.663 500.569"/>

<polygon class="a52c0e7a-35cd-4501-bf1d-3b1754ce9c54" points="611.406 476.231 605.451 467.961 595.371 453.171 587.199 439.117 573.663 429.448 548.566 421.853 535.629 418.537 527.356 416.021 522.56 408.273 521.183 398.629 518.811 385.763 519.394 382.265 516.341 379.214 512.086 375.939 501.583 368.786 494.909 361.795 481.821 359.16 470.821 355.16 461.618 352.203 452.502 350.316 447.249 352.652 443.037 357.502 435.78 364.43 432.142 369.038 436.01 371.875 438.774 384.316 443.734 397.213 448.731 411.536 456.709 429.818 461.772 442.658 464.104 450.529 469.771 450.26 477.312 448.275 483.019 465.396 487.854 472.165 496.133 482.036 501.132 482.918 508.488 482.918 519.224 480.315 528.591 476.762 534.34 472.291 537.208 469.423 542.956 470.86 547.887 469.319 552.677 467.521 551.9 477.608 556.517 480.378 558.929 485.891 563.018 489.98 565.339 498.933 567.85 501.165 569.604 502.043 569.625 501.75 574.25 498.5 577.875 498.5 585.375 498.125 593.25 498.375 599 500.25 604.5 505.625 606.75 505.625 608.375 503.875 609.5 501.5 611.125 496.125 614.875 495 620.375 490 620.398 489.341 617.854 487.433 611.406 476.231"/>

<polygon class="a52c0e7a-35cd-4501-bf1d-3b1754ce9c54" points="382.831 496.383 382.533 489.525 376.164 484.748 372.56 477.899 371.088 468.777 365.437 469.58 355.102 470.294 340.133 455.691 342.024 452.287 340.925 449.264 337.804 438.525 338.386 434.451 336.632 433.224 333.501 435.237 333.501 438.918 325.455 438.918 313.044 435.325 306.635 437.568 301.203 437.908 294.603 439.298 287.006 437.019 284.408 432.601 282.57 434.622 279.674 440.052 270.685 442.21 263.026 443.806 257.8 448.378 250.236 451.473 241.096 454.594 240.874 453.945 237.551 460.261 246.435 457.125 251.774 459.794 252.111 464.842 257.501 467.874 257.501 475.323 251.494 478.485 252.997 482.994 257.002 487.615 261.64 490.708 260.865 495.356 262.214 500.751 261.038 505.457 264.376 507.843 273.347 506.462 281.829 518.131 285.81 522.475 286.106 529.568 286.875 531.875 293.625 538 299.125 543.625 298.875 550 300.625 552 305.375 553.25 307 551.25 309.625 550.5 313.25 550.625 313.75 549.25 319.25 547.75 322.125 546 324.5 547.125 331.375 547.125 335 546.625 337.5 544 343.375 543.75 344.375 541.875 345.625 539 346 534.875 347.875 532.875 355 530.75 361.375 529.875 363.875 528.625 364.875 525.25 368 521.25 372.75 516.875 375.25 513.75 375.375 510.25 379.125 509.75 382.168 509.357 382.174 503.615 382.831 496.383"/>

<polygon class="a52c0e7a-35cd-4501-bf1d-3b1754ce9c54" points="279.458 519.971 271.989 509.706 263.626 510.993 257.631 506.711 259.122 500.751 257.804 495.48 258.362 492.128 255 489.887 250.339 484.508 247.842 477.017 254.501 473.513 254.501 469.628 249.225 466.66 248.895 461.708 246.233 460.377 235.5 464.165 235.498 464.161 234.428 466.195 231.251 465.287 221.308 467.002 210.377 459.239 199.063 449.865 189.519 448.91 189.631 447.783 189.125 447.875 185.75 447.5 185 449 186 449.75 186.5 456.5 189.625 462.25 189.625 465.125 193.25 471.625 206.75 489.75 206.5 491.25 204.75 491.125 203.5 491.875 203.375 493.75 208.5 498.5 212.875 498.875 212.5 500.375 209.625 500.75 208.375 502.875 209.25 504.625 210 510.875 211.125 511.625 212.875 513.75 215.375 517.125 217 520 219 520.125 224.75 525.875 224.625 529.875 226.125 531.5 229.375 536.625 231 540.75 231.75 547 231.875 554.875 254.625 555.5 254.875 553.875 256.25 550.25 258.25 547.125 262.125 546.125 267.625 545.875 269 545 272.5 539.375 275 534.125 277.75 531.375 281.625 527.375 282.972 526.421 282.858 523.693 279.458 519.971"/>

<polygon class="a52c0e7a-35cd-4501-bf1d-3b1754ce9c54" points="722.75 308.5 717.625 305.375 717.5 302.625 717.375 296.375 717.375 291.75 715.75 287.625 713.75 284.625 713.25 280.875 714.25 276.625 713 273.375 710.625 268.25 706.75 261.375 704.25 254.5 705.625 252.125 703 250.25 700 251.875 697.5 253.375 696.625 252.375 695.467 251.946 689.468 257.088 685.353 263.259 677.361 267.082 669.848 271.329 662.807 277.016 658.72 279.617 649.309 278.919 641.179 279.245 636.577 280.165 623.783 288.481 613.676 305.761 603.517 329.364 613.409 334.969 616.56 340.088 615.44 348.295 609.501 357.204 609.501 361.139 616.249 364.365 630.847 369.675 646.818 376.468 654.625 383.493 654.625 379.5 659.625 375.75 661.375 365.625 668.875 358.125 669 354.625 669.875 352.375 672.375 351.375 673.375 348.75 672.875 346.625 673.75 345.625 675.125 344.625 675.875 342.25 674.5 341.625 674.125 339.125 675.125 338 677.625 333.625 684.875 324.875 687.125 324.75 687.75 326.625 691.125 325.625 697.75 324.625 699.5 324 705.875 324.875 706.5 323 707.375 321.25 712.875 320.25 715.5 321.75 719.5 324.125 719.5 322.5 718.5 319.25 718.25 316.25 719.875 313.875 722.25 313.25 723.75 311.75 722.75 308.5"/>

<polygon class="a52c0e7a-35cd-4501-bf1d-3b1754ce9c54" points="212.248 456.894 222.027 463.834 231.417 462.215 232.908 462.641 238.269 452.453 234.805 451.388 229.028 444.527 225.272 434.966 221.849 425.044 221.503 419.172 221.501 409.084 221.196 402.71 216.103 397.317 209.356 394.105 201.038 389.518 187.268 406.237 184.742 411.288 180.119 412.971 175.017 411.95 171.233 412.79 168.703 408.234 169.824 404.872 164.492 407.296 160.368 401.454 156.701 402.371 153.393 400.056 149.655 401.123 146.049 403.648 141.157 402.995 138.053 405.733 134.651 407.59 131.97 410.895 127.424 414.713 122.425 417.628 118.201 413.399 113.543 408.025 113.261 404.352 110.807 403.906 103.381 403.312 100.125 405 99.625 410.5 99 413.75 96.125 416.625 94.125 419 93.25 421.5 90.875 422 88.75 423.25 84.75 423.125 83.375 425.625 82.875 428.875 84.125 431.875 85.75 434.25 85.5 437.125 89.125 440.375 90.875 441.5 93.375 440.875 94.5 440 97.375 440.875 100.625 442.875 101.375 445.875 99.375 447.5 94.5 450.25 94.125 451.75 94.875 456.125 95.25 461.625 94.625 464.25 90.75 465 89 467.25 88.125 471 86.875 470.875 86.125 473.25 88 474.625 90.625 477.125 93.25 477.5 95.5 475.625 95.75 474.25 97.125 471.375 98.875 470.75 100.125 472.875 102.125 472.875 102.625 471.25 105 470.875 106.75 473 109.75 473 111.125 471.5 115.75 468.625 117 469.125 119.75 470.5 121.25 472.875 124.5 472.375 125.125 471.125 127.25 471.375 129.875 470.25 133.75 470.75 138 475.625 143.25 475.875 143.875 473.25 141.625 472.375 141.125 470.5 143.625 468.375 143.375 463 144.75 459.125 151.875 459.875 157 455.5 157 453.125 158.75 451.875 162 451.5 163.25 449.625 167.125 445 169.75 441.375 173.5 439.625 178.375 436 180.5 436.625 187 440.625 187.125 444.75 188.625 445.375 190.25 445.375 190.875 444.375 192.125 444.75 191.992 446.144 200.272 446.971 212.248 456.894"/>

<polygon class="a52c0e7a-35cd-4501-bf1d-3b1754ce9c54" points="361.616 407.298 359.419 408.866 352.249 404.716 344.922 400.055 316.052 385.291 313.666 385.557 304.044 388.87 295.044 391.203 287.318 392.96 281.47 391.497 278.737 396.966 275.775 407.168 272.69 419.06 269.398 426.009 256.285 429.707 247.926 442.567 242.041 451.101 249.184 448.664 256.201 445.791 261.643 441.03 270.028 439.282 277.662 437.45 280.225 432.742 284.928 427.567 288.996 434.483 294.733 436.204 300.907 434.921 306.034 434.6 312.958 432.177 325.881 435.918 330.501 435.918 330.501 433.599 336.704 429.612 341.616 433.051 340.865 438.311 343.775 448.333 345.311 452.549 343.869 455.145 356.234 467.208 365.176 466.591 370.611 465.815 371.168 458.03 371.168 448.508 372.85 443.461 373.499 433.398 373.134 423.88 376.751 421.906 376.561 419.821 372.019 415.885 365.702 410.565 361.616 407.298"/>

<polygon class="a52c0e7a-35cd-4501-bf1d-3b1754ce9c54" points="321.994 178.751 323.865 183.003 323.329 188.724 322.591 193.717 328.306 202.527 325.78 206.174 326.126 211.532 329.474 210.547 336.106 217.782 335.205 222.864 333.842 228.171 332.812 230.23 333.666 235.138 337.132 239.759 333.472 244.544 333.26 248.367 334.454 253.44 328.445 257.286 330.969 262.334 340.258 270.908 347.668 273.06 352.633 274.61 352.857 276.628 358.677 274 369.948 274.013 381.08 275.498 390.144 275.259 394.607 273.145 401.14 270.151 408.891 272.476 417.781 271.515 421.951 270.733 430.431 271.761 436.931 272.689 442.336 269.407 442.335 257.75 440.241 257.75 435.711 261.072 432.932 257.498 431.246 253.164 428.25 250.73 425.582 251.841 423.123 251.103 417.206 253.92 413.559 248.284 412.836 242.984 409.55 239.9 403.975 232.466 404.165 228.658 400.719 228.986 391.727 230.784 381.109 228.334 377.417 223.165 368.907 222.192 360.611 215.673 364.143 208.61 377.913 202.217 378.198 200.648 376.429 196.099 376.856 194.388 375.471 192.771 375.818 187.053 376.833 183.806 371.549 177.081 371.014 171.469 370.077 166.786 366.451 160.5 363.342 155.478 358.85 151.515 357.862 145.092 351.735 148.227 348.784 150.03 344.501 152.353 337.335 153.584 335.616 153.584 332.228 158.424 326.322 159.716 322.666 160.419 320.719 164.185 321.834 172.38 321.994 178.751"/>

<polygon class="a52c0e7a-35cd-4501-bf1d-3b1754ce9c54" points="455.82 272.953 460.831 270.903 466.497 267.555 472.5 266.75 478.875 266.75 490.723 273.068 496.241 279.842 506.157 285.647 518.553 290.507 526.773 290.724 527.908 288.454 533.927 277.169 536.686 271.456 536.383 271.401 535.744 265.654 536.235 258.894 534.471 252.306 528.098 240.417 523.956 234.592 522.502 226.194 521.981 214.877 526.334 207.415 525.076 194.833 515.595 201.1 511.166 200.947 505.818 209.798 502.008 209.586 494.354 210.065 490.372 211.772 485.185 220.417 480.647 220.417 477.199 218.693 474.755 219.437 472.22 229.747 467.934 230.407 466.727 236.443 459.789 244.247 451.667 252.332 445.335 256.553 445.335 268.643 451.756 272.311 455.82 272.953"/>

<polygon class="a52c0e7a-35cd-4501-bf1d-3b1754ce9c54" points="430.038 274.735 422.049 273.767 418.161 274.491 408.609 275.524 401.36 273.349 395.875 275.864 390.856 278.241 380.92 278.502 369.65 277 359.323 277 353.205 279.763 353.32 280.801 349.469 284.652 349.219 289.652 344.709 294.162 342.593 297.972 346.59 300.345 346.515 300.439 350.229 302.857 353.104 305.783 354.065 307.306 355.326 305.954 360.702 304.101 366.437 303.718 368.728 305.355 374.987 304.552 387.464 308.77 391.777 312.894 393.689 317.751 396.137 317.751 400.872 315.324 407.688 313.114 413.911 316.847 414.445 321.658 416.17 323.843 422.237 318.058 425.777 313.878 429.321 311.258 430.543 308.814 431.427 301.394 437.013 297.603 440.395 297.462 441.811 293.072 445.808 287.412 446.269 285.937 442.865 283.153 442.424 272.864 437.569 275.811 430.038 274.735"/>

<polygon class="a52c0e7a-35cd-4501-bf1d-3b1754ce9c54" points="525.293 293.686 517.947 293.493 504.742 288.294 494.259 282.158 488.777 275.432 478.125 269.75 472.602 269.75 467.503 270.445 462.068 273.638 456.18 276.047 450.744 275.189 445.394 272.131 445.805 281.682 449.735 284.898 448.53 288.756 444.526 294.429 442.608 300.373 437.991 300.565 434.243 303.107 433.461 309.688 431.683 313.243 427.706 316.183 424.37 320.17 418.29 325.968 419.482 327.081 419.66 332.96 420.983 336.532 423.693 337.356 428.148 336.158 432.324 338.201 434.942 333.186 439.035 329.094 450.039 328.916 455.181 329.271 467.074 334.198 479.524 338.845 493.763 343.812 500.554 345.51 504.397 347.634 508.12 338.911 520.768 311.987 527.801 297.302 528.108 295.309 525.264 293.744 525.293 293.686"/>

<path class="fd37cb5b-70a3-49fd-ba85-f530ae217c35" d="M891.791,631.46433s10-23,35.334-27c0,0,16.666,1.333,24.666-5.3335,0,0,17.63668-15.97069,26.31058-14.00389l-4.7754,4.0811-2.8321,4.2475-1.7587,1.918-6.5899,3.1524-7.7578,4.3808-7.13868,5.7525-3.17582,2.0205-1.9824-.147a42.37276,42.37276,0,0,0-12.4189-.2568l-2.6055.104-5.5166,1.0844-3.5879,2.33209a36.484,36.484,0,0,0-7.0068,4.55421l-3.2774,2.13079-1.4589,2.49511a52.55838,52.55838,0,0,0-8.09378,12.8208L896.71478,639.5l-13.9296,32.3647-9.61718,16.251-1.62892,4.1328c-1.16608,1.8897-2.1719,3.4141-2.9239,4.3897l-1.19718.7978-4.13382,5.4082-5.1963.9746L852.918,708.645l-6.67972,3.498-10.9531,3.043a51.49333,51.49333,0,0,1-10.6289.4151l-8.4161-2.2432-8.5644.9502-3.1572-3.1563-4.5518-3.5156-10.1992-6.9092-7.2178-7.5595-8.2246-1.6455c-7.0117-2.4405-17.32718-5.9415-18.20018-5.7237l-10.666-3.334a17.655,17.655,0,0,0-5.32232-.7685L738.29,681.312l-2.15622.958a11.70154,11.70154,0,0,0-2.7666,1.2295l-1.8233.8105-4.5048,5.1993-7.2823,6.95109-.708.89361-2.92378,2.7773-4.90722,4.1709-1.7627,1.1006-4.8203,5.8565-2.3116,3.45309h-3.4853l-2.6387,5.64941-3.32518,3.5645a10.28622,10.28622,0,0,1-3.749,1.205s-5.668-.00091-8.668,6.333a19.13649,19.13649,0,0,1-7.00392,6.3047l-3.1347.9209-6.2637-.6416-5.93168-.3818-1.34662,1.6357a5.64083,5.64083,0,0,0-1.98538,1.8291,4.31577,4.31577,0,0,1-1.23052,1.1075l-5.7158-4.5723-1.1592.8271a4.73659,4.73659,0,0,0-1.7543.6807l-5-2.8936-7.3331-4.6669-29.4555-15.07041-.4009-.20409-2.375.2627-.90868-.4707s-2.93992,1.3555-7.12652,2.9639l-2.97209,1.0137-8.899,2.3076-6.9843,1.58789-5.3086-1.32809-.0679-.6104,11.3901-2.3994,9.4249-2.3584,9.58779-3.0518-14.90429-16.0215-8.28609-9.6669-7.08841-2.126-5.5962-.6446c-.206-.0566-.42039-.1191-.6367-.1826l-3.67769-1.9804-2.54641-2.1827-15.6528-2.1337-1.3174.8466-.33839-.0332s-.14841.21-.41011.5147l-2.31789,1.4892-2.44-1.33-2.60981-5.8711-21.6597-17.2598-11.8423-8.79691-6.9883-2.541q-.16395-.13393-.3452-.27729l-4.7383-5.7535-4.1298.4136.0791.791-8.3638-7.1655-13.3613-10.0205-18.6993-13.3555-13.3007-8.9775-9.3335-6.667-18.461-8.09129-16.1533-11.5376-11.189-9.543L362.001,553.99124l-7.458-10.1704-5.43411-4.1992-.1231.0996a4.11021,4.11021,0,0,0-1.19479-.5904s3.667-7,11.33349,0c0,0,22.66651,30.3335,36,31.3335,0,0,17.99951,9.667,24.66651,15,0,0,17,15.333,25.33349,12.66649l6.89651-1.5918,1.95459,1.5982,10.624,7.63719,9.9375,6.95361,6.8696,5.3613,9.3931,6.875,8.7778,5.7959,8.0625,6.418,6.9517,6.6206,8.65821,5.6333,8.18019,6.5078,10.8467,7.626,6.5683,2.18949,7.13481-1.252,5.34369-1.29489,6.2378-.1533,3.793,2.2763,6.9902,3.5,3.2364-1.07811,3.06591.51071,2.23339,2.792,6.03849,10.65629h2.0577l7.5288,2.90531,5.227,7.2265,1.2652,5.53519,2.5312,7.083,3.5606,2.76851,4.5283,1.3936,2.7207,1.1201,3.8452,1.9229,2.3999,1.7138,8.6401,3.2188,9.333,3.833,10.1172,3.209,6.9444.4228,5.8613-3.01951,7.6211-4.73629,10.1035-6.461,6.248-3.5703,2.2725-4.8955,4.4258-4.8984,3.4492-2.666,7.79-3.98151,4.5147-8.333,4.3691-6.21879.0147.0079.0586-.1114.6347-.9043-.1142-.0947,2.6474-5.0713,2.9073-2.9082,9.66312-.15621,4.52538.31151,11.4902,4.7598,12.5303,4.67669,14.333,5,6.6074,1.65821,3.7676,2.082-.0186.043,1.2451.63479,1.167.64551.0215-.0391,4.9395,2.5205,11.6093,4.8008,16.0274,4.1182,12.7236-.3897,10.042-3.8828,4.7559-6.8691,2.2422-3.1865,8.3173-6.3604,7.7491-8.6152,6.12982-7.4785,3.86428-2.834,2.9102-5.291,1.746-6.4102,3.67-10.6411,2.625-3.939Z" transform="translate(-286.125 -334.12842)"/>

<text class="a08c7f2c-7dc6-4312-97e7-5cffc31b5837" transform="translate(418.29 214.32688)">성북구</text>
<text class="a08c7f2c-7dc6-4312-97e7-5cffc31b5837" transform="translate(410.87337 138.71701)">강북구</text>
<text class="a08c7f2c-7dc6-4312-97e7-5cffc31b5837" transform="translate(442.55958 80.05561)">도봉구</text>
<text class="a08c7f2c-7dc6-4312-97e7-5cffc31b5837" transform="translate(517.04536 110.80566)">노원구</text>
<text class="a08c7f2c-7dc6-4312-97e7-5cffc31b5837" transform="translate(546.06847 223.38577)">중랑구</text>
<text class="a08c7f2c-7dc6-4312-97e7-5cffc31b5837" transform="translate(477.08588 250.25)">동대문구</text>
<text class="a08c7f2c-7dc6-4312-97e7-5cffc31b5837" transform="translate(536.79294 323.84282)">광진구</text>
<text class="a08c7f2c-7dc6-4312-97e7-5cffc31b5837" transform="translate(638.31228 323.84282)">강동구</text>
<text class="a08c7f2c-7dc6-4312-97e7-5cffc31b5837" transform="translate(596.5 417.83339)">송파구</text>
<text class="a08c7f2c-7dc6-4312-97e7-5cffc31b5837" transform="translate(500.97363 442.15305)">강남구</text>
<text class="a08c7f2c-7dc6-4312-97e7-5cffc31b5837" transform="translate(432.14158 471.40598)">서초구</text>
<text class="a08c7f2c-7dc6-4312-97e7-5cffc31b5837" transform="translate(302.51291 501.5)">관악구</text>
<text class="a08c7f2c-7dc6-4312-97e7-5cffc31b5837" transform="translate(221.9618 512.10317)">금천구</text>
<text class="a08c7f2c-7dc6-4312-97e7-5cffc31b5837" transform="translate(124.98291 431.76709)">구로구</text>
<text class="a08c7f2c-7dc6-4312-97e7-5cffc31b5837" transform="translate(222.47791 386.89751)">영등포구</text>
<text class="a08c7f2c-7dc6-4312-97e7-5cffc31b5837" transform="translate(316.01218 418.87733)">동작구</text>
<text class="a08c7f2c-7dc6-4312-97e7-5cffc31b5837" transform="translate(141.04487 383.49321)">양천구</text>
<text class="a08c7f2c-7dc6-4312-97e7-5cffc31b5837" transform="translate(93.93376 298.35312)">강서구</text>
<text class="a08c7f2c-7dc6-4312-97e7-5cffc31b5837" transform="translate(242.04098 308.69179)">마포구</text>
<text class="a08c7f2c-7dc6-4312-97e7-5cffc31b5837" transform="translate(357.38088 350.31642)">용산구</text>
<text class="a08c7f2c-7dc6-4312-97e7-5cffc31b5837" transform="translate(266.10975 180.35212)">은평구</text>
<text class="a08c7f2c-7dc6-4312-97e7-5cffc31b5837" transform="translate(356.16895 251.29395)">종로구</text>
<text class="a08c7f2c-7dc6-4312-97e7-5cffc31b5837" transform="translate(464.73338 309.72402)">성동구</text>
<text class="a08c7f2c-7dc6-4312-97e7-5cffc31b5837" transform="translate(382.83108 298.35303)">중구</text>
<text class="a08c7f2c-7dc6-4312-97e7-5cffc31b5837" transform="translate(274.63278 266.41942)">서대문구</text>
</svg>