<?xml version="1.0" encoding="UTF-8" standalone="no"?>
<svg
   xmlns:dc="http://purl.org/dc/elements/1.1/"
   xmlns:cc="http://creativecommons.org/ns#"
   xmlns:rdf="http://www.w3.org/1999/02/22-rdf-syntax-ns#"
   xmlns:svg="http://www.w3.org/2000/svg"
   xmlns="http://www.w3.org/2000/svg"
   viewBox="0 0 1728 1728"
   height="1728"
   width="1728"
   xml:space="preserve"
   id="svg2"
   version="1.1"><metadata
     id="metadata8"><rdf:RDF><cc:Work
         rdf:about=""><dc:format>image/svg+xml</dc:format><dc:type
           rdf:resource="http://purl.org/dc/dcmitype/StillImage" /></cc:Work></rdf:RDF></metadata><defs
     id="defs6"><clipPath
       id="clipPath26"
       clipPathUnits="userSpaceOnUse"><path
         id="path24"
         d="M 0,1296 H 1296 V 0 H 0 Z" /></clipPath></defs><g
     transform="matrix(1.3333333,0,0,-1.3333333,0,1728)"
     id="g10"><g
       transform="translate(653.6582,807.228)"
       id="g12"><path
         id="path14"
         style="fill:#c9c8c6;fill-opacity:1;fill-rule:nonzero;stroke:none"
         d="m 0,0 3.367,-5.438 3.898,-6.754 1.07,-5.394 0.458,-4.811 5.716,-7.275 -1.429,-4.573 -0.209,-3.963 1.614,-1.882 -0.572,-2.289 1.731,-4.451 -0.715,-3.931 -14.23,-6.607 -1.969,-3.937 5.705,-4.481 8.99,-1.027 3.807,-5.331 8.882,-2.05 8.585,1.709 6.978,0.665 -0.31,-6.192 4.844,-6.458 3.795,-3.524 0.777,-5.7 1.853,-2.864 4.583,2.183 2.541,-0.762 3.332,1.388 5.004,-4.065 1.814,-4.666 0.721,-0.926 2.97,2.178 h 3.373 l 7.247,4.831 7.728,7.729 6.336,7.132 1.459,7.297 4.382,0.674 2.465,10.023 5.222,1.589 3.885,-1.942 h 2.129 l 4.813,8.02 5.351,2.294 8.348,0.521 2.188,-0.121 5.319,8.816 5.237,-0.181 8.94,5.909 0.762,3.175 -1.501,4.5 -1.461,3.014 -3.524,-1.118 -3.045,-0.662 -5.936,-0.148 -1.873,3.602 -5.08,3.282 -4.509,3.88 -9.16,10.13 -0.943,-0.937 -3.884,-2.971 -1.454,-4.363 -5.327,-5.846 -6.516,-5.792 -1.566,-3.395 -15.139,-8.831 1.017,6.44 -4.714,0.906 -7.88,-2.364 -9.626,7.346 -4.078,-0.48 -6.411,3.104 -5.877,4.541 -2.235,7.267 0.618,4.738 -7.162,1.755 -7.704,3.187 -3.582,5.885 -3.734,2.49 -2.091,3.253 -4.009,0.943 -5.023,4.23 -7.024,6.554 -10.51,-5.781 -2.125,-3.25 -0.699,0.221 0.974,-6.331 z" /></g><g
       transform="translate(675.4424,817.8779)"
       id="g16"><path
         id="path18"
         style="fill:#c9c8c6;fill-opacity:1;fill-rule:nonzero;stroke:none"
         d="m 0,0 4.491,-1.057 2.409,-3.747 3.766,-2.51 3.418,-5.615 6.689,-2.768 9.446,-2.29 -0.882,-6.761 1.765,-5.734 4.997,-3.862 5.214,-2.493 4.422,0.52 9.374,-7.154 7.12,2.136 8.287,-1.594 -0.484,-3.06 8.861,5.169 1.434,3.105 6.924,6.155 4.733,5.207 1.546,4.637 4.537,3.469 0.804,0.804 -4.353,6.425 -5.56,3.058 -0.035,-0.155 -0.387,0.388 -0.367,0.201 0.058,0.107 -3.23,3.231 -6.126,6.642 -6.142,7.934 -2.723,7.428 -3.841,4.067 -7.05,3.273 -5.516,6.716 -6.123,0.037 -6.193,1.407 -3.065,6.132 0.809,3.24 -1.753,0.657 0.563,17.156 2.768,1.615 -0.822,3.703 0.854,5.691 3.578,4.294 -0.35,2.099 -2.011,4.021 -4.875,4.106 -2.234,8.439 -6.345,4.568 -1.329,10.637 -3.138,0.448 -2.875,-0.625 -2,-1.875 -3.375,0.875 -2.75,-0.625 -2.375,-1.5 -1.75,-2 -3.125,-4 -2.25,-0.875 -1.75,-1.375 0.625,-3.125 1.625,-4.375 1.5,-8.375 -1.125,-12.125 -10.875,-6.125 -3.5,-8.75 -7,-5.125 -2.5,-1 0.125,-3.125 2.625,-1.625 0.75,-4.75 5.375,-10.75 -2.625,-6.625 3.375,-1.875 1.5,-4 -2.657,-6.419 6.68,-6.234 z" /></g><g
       id="g20"><g
         clip-path="url(#clipPath26)"
         id="g22"><g
           transform="translate(512.3188,711.9653)"
           id="g28"><path
             id="path30"
             style="fill:#c9c8c6;fill-opacity:1;fill-rule:nonzero;stroke:none"
             d="m 0,0 12.881,-10.581 15.667,16.752 2.167,5.852 7.007,-3.866 0.722,-4.768 7.207,0.994 0.85,3.257 1.523,1.523 1.785,5.866 2.881,-2.881 2.508,0.448 -0.348,3.105 v 5.07 l 5.859,6.593 8.602,5.265 3.984,0.693 3.091,1.124 1.218,1.772 -0.378,2.266 -1.626,4.473 2.958,2.746 2.198,2.998 h 4.138 l 1.386,2.016 3.369,4.494 3.455,0.768 2.395,0.838 0.533,3.603 0.454,4.866 -1.796,4.081 -0.171,6.879 -1.22,8.888 3.053,5.902 5.047,0.971 4.724,1.034 3.612,5.16 h 3.151 l 6.297,1.102 3.785,2.05 3.032,1.85 7.062,3.614 -0.09,0.586 -4.541,4.632 -1.375,7.125 -5.375,7 -6.375,4.125 -0.75,7.25 -3,2.375 -5.625,8.5 -5.75,4.875 c -6.5,0.375 -11.875,8.5 -11.875,8.5 l -13.875,-8.125 -3.125,-6.5 c -4.875,-5.25 -10,-2.625 -10,-2.625 l -14.625,-10 -5.25,-0.875 c -7.625,-5.5 -17.875,4.75 -17.875,4.75 l -2.375,0.375 -0.625,-1.375 -0.375,-2 1.375,-1.625 2.125,-2.75 -0.125,-2.25 v -2.25 l 0.625,-1.375 1.375,-3 0.375,-1.625 -0.75,-0.875 -0.375,-3.375 0.375,-1.5 0.5,-1.5 -0.5,-2.125 -2,-1.25 -1.5,-1.75 -2.5,-3.25 -0.5,-2.75 1.25,-1.875 2.75,-3.5 -0.25,-4.25 -0.75,-2.125 -2.25,-2 -0.5,-1.125 -0.125,-2 0.875,-1.625 0.625,-1.375 -2.375,-1.625 -1.875,-2.375 -1.625,-2.375 -2.625,-2.75 -0.375,-2.625 -0.875,-4.5 -1.125,-1.125 -0.125,-1.875 1,-1.875 1.25,-2 0.625,-3.75 -0.375,-1.875 -1.125,-0.75 -0.375,-1.625 0.75,-1.625 1,-1.75 0.125,-1.5 -1,-1 -1.875,-1.625 -0.25,-3.25 1.5,-3.625 V 35.16 l -0.625,-1.5 0.375,-1.75 1.375,-2 -0.375,-2.5 -2.25,-1.375 -1.75,-2.25 0.125,-5.125 0.5,-2 -3.375,-1 -3.125,-0.375 -1,0.875 -2.875,0.25 -1.875,-2.25 -1.5,-0.375 -1.375,1.75 h -1.875 l -2.375,-0.25 -1.25,1.125 -1.125,2.375 0.125,2.125 2.375,2.375 -0.875,1.5 -2.5,2.125 -1.75,-1.25 -3,-4 -2.059,-1.798 11.399,-11.086 z" /></g><g
           transform="translate(468.2134,691.5488)"
           id="g32"><path
             id="path34"
             style="fill:#c9c8c6;fill-opacity:1;fill-rule:nonzero;stroke:none"
             d="m 0,0 9.982,-6.987 6.895,-5.38 9.297,-6.805 8.882,-5.87 8.267,-6.588 6.898,-6.57 8.501,-5.509 8.167,-6.5 10.415,-7.32 5.432,-1.811 6.051,1.541 5.964,0.916 7.269,0.177 4.49,-2.694 5.727,-2.864 2.763,0.922 4.935,-0.821 3.158,-3.98 5.045,-8.903 0.024,0.063 1.035,-0.4 h 0.031 l 4.107,0.329 6.119,0.315 2.176,1.495 6.828,7.478 3.826,5.261 2.092,5.753 2.836,1.95 3.653,5.259 -0.384,2.051 -0.674,4.205 -0.755,5.848 2.814,3.484 -3.28,1.948 -4.123,-1.199 -5.666,-0.666 -6.042,-1.005 -16.687,-1.487 -6.927,-2.028 -4.741,0.19 -9.792,4.982 -6.646,3.127 0.877,5.483 1.415,3.086 -2.858,2.144 -15.958,5.944 -1.552,2.586 -15.222,7.98 -8.834,7.333 0.217,0.262 -13.878,11.4 -10.198,8.86 -11.636,11.315 -2.548,-2.224 -0.75,-5 -4.625,-3.375 -0.25,-2.875 1.625,-0.875 v -3.375 l -0.75,-0.625 -1,-3.5 -3,-1.375 -5.75,-2.25 -8.125,-2.375 -5.296,-3.157 1.116,-0.781 z" /></g><g
           transform="translate(859.9883,791.1689)"
           id="g36"><path
             id="path38"
             style="fill:#c9c8c6;fill-opacity:1;fill-rule:nonzero;stroke:none"
             d="m 0,0 -4.717,-2.83 -6.707,-4.116 -2.889,4.248 -3.149,3.779 -2.771,-0.478 c -0.012,-0.002 -2.388,-0.393 -4.766,-0.777 -1.191,-0.192 -2.383,-0.383 -3.277,-0.521 -0.49,-0.076 -0.92,-0.143 -1.294,-0.175 -0.426,-0.237 -0.977,-0.502 -1.667,-0.835 -1.15,-0.554 -2.685,-1.288 -4.22,-2.021 -2.736,-1.306 -5.476,-2.608 -6.034,-2.874 l -6.206,-4.207 1.466,-3.054 1.803,-5.407 -0.049,-0.202 1.905,-19.034 -4.398,-7.538 0.476,-10.338 1.3,-7.446 3.903,-5.509 6.627,-12.446 1.94,-7.244 -0.508,-6.99 0.361,-3.253 4.401,-0.8 8.538,-0.973 9.651,0.367 9.635,1.806 4.9,2.868 2.085,1.347 -0.077,2.859 0.625,1.25 2.625,3.875 0.875,2.125 0.25,2.5 1,1.125 2.625,1.375 2.375,1.75 3.375,1.75 1.25,3.875 1.125,4.625 1,4 2,4.5 1,2.5 3.25,2 1.75,1 1.75,1.625 0.375,2.375 -0.5,3.375 -1.5,3.25 -1.625,2.375 0.875,1.875 2,2.75 2.375,2.75 0.625,2.75 0.25,5.125 -0.625,2.5 -1.75,2.875 -0.25,1.625 1.375,1.875 -0.375,3.5 -0.125,4.5 -0.25,3.75 -0.25,2.125 -3.125,2.875 c 0,0 -4.125,1.625 -4.5,1.75 -0.375,0.125 -4.25,1.25 -4.25,1.25 L 16.137,2.706 13.695,3.372 6.872,0.736 Z" /></g><g
           transform="translate(706.6572,918.585)"
           id="g40"><path
             id="path42"
             style="fill:#c9c8c6;fill-opacity:1;fill-rule:nonzero;stroke:none"
             d="m 0,0 6.155,-4.432 2.267,-8.561 4.624,-3.894 2.489,-4.979 0.651,-3.901 -3.922,-4.706 -0.647,-4.309 1.178,-5.297 -3.231,-1.885 -0.438,-13.344 2.247,-0.842 -1.19,-4.761 1.934,-3.868 4.644,-1.056 h 7.041 l 5.983,-7.284 6.95,-3.227 4.66,-4.933 2.776,-7.572 5.818,-7.514 5.988,-6.485 1.713,7.616 4.748,7.121 -1.149,3.445 4.389,2.633 1.715,3.675 4.418,3.314 5.062,-5.841 0.277,3.214 0.943,3.298 v 2.155 l -2.706,4.92 -0.793,6.921 -0.24,8.139 -4.234,7.72 -0.75,10.252 -4.598,8.431 2.393,12.961 2.21,6.876 1.221,8.792 0.248,7.92 0.262,4.401 0.16,1.201 -0.673,1.851 -0.125,3.125 -0.5,2.75 -1.125,2.875 -1.75,3.25 -1.375,-0.375 -1.75,-1.375 -2.125,-1.375 -1.875,1 -1.625,1.875 -2.5,2 -1.375,-0.625 -3,-2.25 -1.75,-2.5 -2.75,-1.25 -4.5,-0.5 -1.125,-2 -1.875,-0.5 -0.875,1.5 -0.875,2.5 -0.75,2.5 -1.5,4.125 -1.375,3.25 -2.5,3.375 -3.625,1.75 -3.875,0.875 -4.5,-1.375 -8.125,-1.75 -4.25,-1.375 -4,-1.125 -2.625,-2.25 -2,-4.25 -0.875,-2.875 -0.625,-3.5 -1.125,-4 0.375,-1.875 1.5,-2.375 1.125,-2.75 -0.652,-1.347 0.265,0.033 z" /></g><g
           transform="translate(780.4971,929.162)"
           id="g44"><path
             id="path46"
             style="fill:#c9c8c6;fill-opacity:1;fill-rule:nonzero;stroke:none"
             d="m 0,0 -0.262,-8.119 -1.307,-9.252 -2.22,-6.908 -2.137,-11.631 4.402,-8.069 0.75,-10.248 4.265,-7.78 0.259,-8.797 0.709,-6.143 2.794,-5.08 v -3.345 l -1.016,-3.556 -0.764,-9.932 -7.938,9.159 -1.582,-1.186 -1.785,-3.825 -3.111,-1.867 0.851,-2.555 -5.253,-7.879 -2.066,-9.184 6.953,-3.825 4.979,-7.35 0.097,0.088 10.557,-11.675 4.225,-3.622 5.499,-3.535 1.377,-2.648 3.915,0.098 2.542,0.578 5.223,1.661 6.653,4.495 c 3.689,1.753 8.931,4.252 11.139,5.321 l -0.044,0.178 2.663,0.89 0.093,-0.227 c 1.871,0.288 5.725,0.915 8.3,1.338 l 4.467,0.77 4.391,-5.282 1.32,-1.941 4.281,2.626 5.296,3.178 7.128,0.764 3.311,1.301 1.363,0.523 1.186,1.581 0.125,3.5 1.25,2.5 0.75,1.625 1.375,2.125 3.25,2 2.125,2.125 1.25,2 1.375,1.75 0.75,5.625 0.25,2.125 v 3.875 l -0.25,3.875 -0.25,3.75 -1,3.25 -2.625,2.875 -4.75,3.375 c 0,0 -5.25,2.25 -5.625,2.25 -0.375,0 -2.875,0.375 -2.875,0.375 l -2.625,-0.25 -2.875,-0.5 -3.25,-0.5 -4.25,0.25 -2.125,3.875 -2.25,3 1.125,0.75 0.75,2.125 0.625,1.75 0.5,2.25 -1,4.5 -2.375,1.25 0.125,2.375 -0.75,2 -0.125,3.5 0.5,1.375 1.25,1.75 1.375,1.75 1.875,2.5 -0.5,2.5 -0.375,5 0.875,1.125 0.875,2 1,2.5 0.5,2.25 v 2.625 l -1.75,3.125 -2.125,2.5 -0.25,2.375 -0.625,2.5 -0.875,1.75 -1.5,2.25 -0.25,2.875 1.375,2.25 1.5,2.25 1.625,2.875 2.5,3.375 0.375,2.375 -0.5,3.75 -1,2.625 -2.75,1.125 -3.25,1.375 -3.125,-0.5 -4,0.875 -3.125,1.375 -1.75,3.25 -0.5,1.75 -1.875,3.5 -3,3.75 -4.5,0.5 -3.125,-0.75 -2.5,-0.5 -4.125,-2 -2.125,-1.125 -3.25,-0.5 -3,0.25 -2.875,0.625 -5.375,1.125 -2.875,-0.625 -0.5,-1.625 -1,-2.375 -2.125,-2.75 -3.75,-2.375 -2.5,-1.75 -2.25,-1.25 -2.25,-0.5 L 0.454,5.744 0.247,4.195 Z" /></g><g
           transform="translate(860.4082,689.4487)"
           id="g48"><path
             id="path50"
             style="fill:#c9c8c6;fill-opacity:1;fill-rule:nonzero;stroke:none"
             d="m 0,0 -10.477,-1.948 -9.988,-0.379 -8.863,1.013 -3.33,0.604 -3.15,-6.517 -6.027,-11.303 -1.337,-2.675 2.155,-1.185 -0.692,-4.506 -0.097,-0.201 -7.125,-14.875 -12.62,-26.864 -3.803,-8.914 4.824,-2.46 11.346,-4.687 15.321,-3.922 4.541,0.119 7.235,0.242 8.708,3.367 6.752,9.694 8.57,6.554 7.407,8.27 6.48,7.834 3.482,2.554 2.502,4.549 1.61,6.051 3.92,11.218 2.532,3.799 -0.618,0.312 -1.791,2.557 -3.125,1.5 -2.625,-1.875 -2.75,-1.875 -4.625,-3.875 -1.625,1.375 -2.25,2.25 -3.25,2.25 -0.125,2.125 0.875,4.25 1.375,5.5 1.125,5.75 0.875,4 -0.625,3.125 -2.25,2 L 8.064,4.882 5.405,3.166 Z" /></g><g
           transform="translate(634.2808,672.4019)"
           id="g52"><path
             id="path54"
             style="fill:#c9c8c6;fill-opacity:1;fill-rule:nonzero;stroke:none"
             d="m 0,0 0.25,5 3.649,3.649 -0.313,2.81 -3.064,0.958 -8.061,2.339 -10.21,9.426 -3.977,7.952 6.492,4.155 -0.807,3.426 0.288,5.178 2.84,3.714 -2.534,3.379 -1.146,6.592 1.397,2.794 1.197,4.789 0.612,3.469 -4.367,4.765 -5.153,-1.515 -0.654,10.142 1.975,2.853 -4.779,7.368 -1.755,-0.61 -2.459,-0.546 -2.667,-3.556 -2.244,-3.267 h -4.196 l -1.573,-2.099 -1.604,-1.49 1.063,-2.998 0.6,-3.597 -2.448,-3.561 -4.374,-1.566 -3.551,-0.618 -7.733,-4.734 -4.806,-5.407 v -3.843 l 0.652,-5.649 -6.827,-1.219 -0.452,0.453 -0.548,-1.801 -1.477,-1.477 -1.15,-4.409 -12.127,-1.673 -0.943,6.232 -2.661,1.467 -1.166,-3.149 -16.186,-17.307 7.387,-6.132 15.567,-8.122 1.448,-2.413 15.374,-5.723 5.143,-3.857 -2.253,-4.913 -0.456,-2.851 4.646,-2.186 9.249,-4.705 3.594,-0.144 6.885,1.985 16.777,1.495 5.944,0.991 5.609,0.661 5.006,1.484 0.808,-0.48 2.279,4.101 z" /></g><g
           transform="translate(612.3955,604.2979)"
           id="g56"><path
             id="path58"
             style="fill:#c9c8c6;fill-opacity:1;fill-rule:nonzero;stroke:none"
             d="m 0,0 1.382,-6.043 2.156,-6.005 2.439,-1.897 4.198,-1.299 2.935,-1.212 4.201,-2.121 2.172,-1.552 8.314,-3.098 9.322,-3.827 9.759,-3.091 5.569,-0.3 5.084,2.619 7.448,4.634 10.153,6.491 5.481,3.134 2.062,4.439 5.015,5.516 3.9,2.983 7.086,3.621 4.203,7.738 3.501,4.982 -2.92,1.396 -4.213,-1.133 -4.956,1.507 -2.011,5.428 -0.154,5.121 -2.196,2.074 -2.767,3.503 -0.466,4.189 -3.777,2.266 -5.401,-1.75 -5.047,-2.612 h -5.221 l -2.42,6.144 -3.354,3.209 -11.19,3.782 -6.741,-0.864 -2.375,1.697 -4.265,-0.284 -4.292,-1.48 -3.405,-3.65 -2.948,4.671 -2.435,2.434 -3.597,2.313 -2.22,-2.749 0.585,-4.531 0.66,-4.121 0.609,-3.244 L 15.182,32.287 12.685,30.571 10.777,25.324 6.547,19.523 -0.711,11.632 -3.727,9.558 -8.383,9.32 -6.106,8.441 Z" /></g><g
           transform="translate(542.3843,533.623)"
           id="g60"><path
             id="path62"
             style="fill:#c9c8c6;fill-opacity:1;fill-rule:nonzero;stroke:none"
             d="m 0,0 12.887,3.636 2.646,5.587 2.964,11.528 3.111,10.63 3.135,6.27 -0.435,3.914 14,2.947 9.278,2.32 4.987,1.59 -11.721,12.601 -7.754,9.044 -6.116,1.834 -6.154,0.683 -4.854,2.654 -1.998,1.712 -13.68,1.867 -4.95,-3.183 -4.893,2.67 -2.725,6.129 -21.046,16.771 -11.45,8.504 -7.513,2.732 -4.418,5.365 -1.073,-0.108 1.424,-3.701 3.345,-6.388 0.092,0.079 6.203,-7.306 4.393,-8.802 4.476,-11.708 -1.13,-7.156 -5.112,-5.841 -5.824,-3.427 -2.973,-2.081 -1.957,-3.915 0.578,-4.334 2.41,-5.51 -0.802,-6.957 8.99,-4.96 7.174,-3.414 6.24,-6.607 0.36,-7.555 0.002,-10.071 0.318,-5.372 3.267,-9.472 3.554,-9.044 4.891,-5.808 2.859,-0.88 6.043,8.762 z" /></g><g
           transform="translate(917.7471,588.2861)"
           id="g64"><path
             id="path66"
             style="fill:#c9c8c6;fill-opacity:1;fill-rule:nonzero;stroke:none"
             d="m 0,0 -14.727,5.36 -8.519,4.075 v 6.733 l 6.06,9.091 0.881,6.459 -2.183,3.547 -8.935,5.063 -3.032,-7.045 -9.606,-16.229 -3.127,-7.993 -3.186,-2.124 -4.53,-5.925 -5.47,-1.026 -4.83,-4.507 -7.474,-3.877 -12.286,-3.384 -8.922,-0.687 -9.974,2.66 -7.594,-0.843 -0.437,-2.621 2.287,-12.409 1.298,-9.082 3.87,-6.252 7.126,-2.169 12.936,-3.315 25.632,-7.756 14.464,-10.331 8.468,-14.565 9.97,-14.623 6.061,-8.43 6.179,-10.732 0.353,-0.265 v 2.291 l 2,0.75 2.625,-2.75 6.625,-0.625 2.875,0.375 6.25,1.375 0.625,1.25 -2.625,3.125 -4.625,0.875 -4.125,3.375 -0.25,5.5 3.25,2.125 8.875,-4.875 3.625,0.125 12.5,9.375 1.25,2.625 2.125,4 1.875,3.75 0.5,3.125 3.25,0.625 2.875,3 0.375,3.125 9.875,8.5 0.125,8.25 1,1 0.25,4 1.25,1.125 -1,4 -2.25,1.625 -2.25,4.5 -1.875,-0.25 -1.125,-1.875 -2.125,0.875 -1.375,3.125 -5.5,4.625 -1.625,-2 -1.75,-2.75 -5.75,-1.75 -7.375,3.5 -0.25,2.625 -0.75,2.25 -1.625,3.125 2.125,7.25 2.75,2 -0.625,3.25 1.918,0.581 -7.234,6.512 z" /></g><g
           transform="translate(393.3081,631.3184)"
           id="g68"><path
             id="path70"
             style="fill:#c9c8c6;fill-opacity:1;fill-rule:nonzero;stroke:none"
             d="m 0,0 2.374,6.443 2.969,3.562 3.395,-3.96 1.204,-5.219 -0.627,-1.254 3.106,-1.911 3.941,-1.971 1.163,-6.341 v -4.961 l 2.889,-5.471 2.961,-7.239 3.099,-5.354 37.825,5.989 0.55,6.316 -1.056,6.69 2.066,3.445 v 5.099 l -4.421,6.121 1.156,6.478 1.736,5.516 2.728,5.908 9.073,-5.917 6.221,-3.422 7.463,0.622 2.953,0.591 -2.809,5.383 -1.531,3.98 -9.045,7.753 -13.257,9.939 -18.639,13.312 -13.301,8.978 -9.238,6.598 -18.461,8.091 -16.435,11.747 -11.51,9.844 -10.333,12.333 -7.268,9.906 -5.83,4.505 -0.044,-0.572 -0.75,-1.25 -1.5,-1 -1.375,-1.375 -0.375,-7.625 2.75,-4.875 1.25,-2.625 1.25,-2.625 0.125,-3.5 -0.5,-4.25 -2.25,-1 -2.625,-3.375 -2.625,-3.75 -0.25,-2.125 -1.625,-2.625 -2.5,-4 -0.25,-5.25 -0.625,1.375 -0.25,1.5 -1.625,1 -1.5,-2 -2.5,-2.375 -2.625,-2 -3.5,-2.75 -5.25,-2.875 -0.125,-2.875 -1.375,-0.125 -1.375,-2.75 1.625,-1.625 0.875,-1.5 -2.25,-0.375 -2.625,-2.625 -1.875,0.25 -2.25,1.125 -1.625,-1.5 -0.375,-2.25 1.375,-1.875 2,-5.25 0.375,-5.875 -0.875,1.25 -2.25,1.625 -1.875,-1.875 -3,-5.25 -1.5,-1.375 -4.375,0.5 -3.25,-0.375 -3.125,-1.75 -3.125,-2.375 -0.25,-1.75 13.25,-14.125 6.25,0.125 7.375,-6.125 13.375,-0.5 6,-4.375 0.5,-3.75 1.75,-0.625 2,-0.625 0.375,-1.5 -1.5,-0.875 -0.5,-2.75 1.625,-1.875 1.125,-4.625 1.375,-0.25 8.625,6 0.375,1.375 2.375,2.75 2.625,2.5 2.25,1.625 2.875,1.875 3.5,0.125 0.625,-1 1.25,-2.25 2.375,-1.25 3.25,-1.25 15.25,0.25 0.178,-2.402 3.867,5.157 z" /></g><g
           transform="translate(399.269,559.8086)"
           id="g72"><path
             id="path74"
             style="fill:#c9c8c6;fill-opacity:1;fill-rule:nonzero;stroke:none"
             d="m 0,0 4.806,-0.873 0.383,-4.994 3.975,-4.585 2.478,-2.479 2.888,1.685 4.122,3.488 2.764,3.455 3.777,2.06 3.717,3.345 5.108,-0.679 3.06,2.141 5.596,1.599 3.358,-2.351 4.333,1.084 3.876,-5.493 9.335,4.245 -2.879,-8.638 0.803,-1.445 2.216,0.493 4.898,-0.98 2.711,0.985 2.246,4.412 6,7.334 7.722,9.329 0.902,7.823 -2.255,5.156 -0.756,5.666 2.71,5.419 3.744,2.615 5.458,3.211 4.222,4.826 0.87,5.509 -4.164,10.891 -4.218,8.434 -5.067,5.913 -4.55,-0.905 -8.451,-0.704 -7.159,3.943 -6.214,4.052 -1.231,-2.669 -1.609,-5.149 -0.873,-4.946 4.246,-5.879 v -6.901 l -1.934,-3.223 0.944,-5.976 -0.784,-9.017 -42.175,-6.678 -4.273,7.407 -2.972,7.266 -3.14,5.929 v 5.568 l -0.836,4.464 -2.783,1.398 -5.503,3.386 1.373,2.746 -0.796,3.449 -0.605,0.706 -0.365,-0.438 -2.365,-6.343 -3.086,-5.129 -6,-8 -0.104,0.078 0.112,-5.47 3.75,-5 0.5,-2.375 1.25,-1.625 2.375,-1.125 2.125,-1 0.125,-5.625 -2.375,-2.125 -1.25,-3.125 -0.625,-5.25 -0.625,-5.875 -1.5,-2.875 -1.375,-1.375 v -3.375 l 1.5,-0.625 0.75,-1.375 0.5,-3.75 -1.75,0.125 -0.875,-2.75 0.625,-2.625 0.696,-0.278 0.092,1.148 z" /></g><g
           transform="translate(850.6631,460.1807)"
           id="g76"><path
             id="path78"
             style="fill:#c9c8c6;fill-opacity:1;fill-rule:nonzero;stroke:none"
             d="m 0,0 -2.345,9.047 -3.911,3.911 -2.256,5.153 -5.384,3.231 0.558,7.246 -0.465,-0.174 -5.814,-1.82 -4.918,1.23 -1.873,-1.857 -6.178,-4.804 -10.056,-3.803 -11.353,-2.709 -7.928,0.023 -6.205,1.096 -9.088,10.843 -5.131,7.184 -4.961,14.88 -5.283,-1.357 -8.175,-0.389 -2.982,10.065 -4.977,12.605 -8.02,18.39 -5,14.333 -5.048,13.169 -2.544,11.449 -3.725,2.733 -4.265,-2.665 -4.462,-5.419 -3.07,-4.606 h -3.181 l -2.031,-4.348 -5.079,-5.446 -6.694,-2.342 -10.028,-10.029 -6.316,-1.857 -6.795,0.697 -4.342,0.279 -3.134,-3.805 3.763,-3.168 5.473,-4.743 0.477,-5.249 -3.715,-2.027 0.301,-7.815 -0.746,-10.788 -1.589,-4.769 -0.004,-9.196 -0.536,-7.499 1.814,-11.247 3.062,-5.818 6.965,-5.222 0.368,-8.477 -0.669,-7.366 v -3.905 l 1.207,0.849 8.125,6.75 3.875,0.5 3.125,3.75 -0.25,2.375 -2.125,2.875 0.5,1.625 10.375,-0.375 0.875,-3.125 3.625,-8.375 5.5,-8 11.875,-6.875 2.125,2 -0.125,2.5 2.25,0.75 1.75,-2.125 2.25,0.125 3.375,1.5 8.375,6.5 0.875,4.25 5.125,8.25 2,-0.25 4.375,-3.375 -0.75,-2 -1,-5.5 2.625,-3.125 0.875,-3.25 1.5,-1.875 -4.125,-3.75 0.75,-2.875 4.25,-5.75 0.625,-2.375 -2.25,-1.375 0.5,-3.125 2.25,-1 0.5,-2.125 -2.25,-3.125 -3,-4.875 0.875,-5.125 4,-1 5.25,-1.375 4,-4.25 7.625,-1.25 41.25,0.375 5,4.625 0.875,2 -3.875,2.625 -0.25,4.75 9.125,0.25 3.5,-2.25 5,0.5 4.375,6.75 4.375,0.25 2,3.25 0.375,8.75 2.875,3.5 v 2.375 l 1.5,0.375 5,4.75 1.5,2.5 0.25,4 0.006,0.09 -3.229,1.614 z" /></g><g
           transform="translate(899.4062,484.5186)"
           id="g80"><path
             id="path82"
             style="fill:#c9c8c6;fill-opacity:1;fill-rule:nonzero;stroke:none"
             d="m 0,0 -5.955,8.271 -10.08,14.79 -8.172,14.053 -13.536,9.669 -25.097,7.596 -12.937,3.315 -8.273,2.517 -4.796,7.748 -1.378,9.644 -2.371,12.866 0.582,3.498 -3.052,3.05 -4.255,3.276 -10.503,7.152 -6.674,6.991 -13.088,2.635 -11,4 -9.203,2.957 -9.116,1.887 -5.253,-2.336 -4.212,-4.85 -7.257,-6.927 -3.639,-4.609 3.869,-2.837 2.764,-12.441 4.96,-12.896 4.997,-14.324 7.978,-18.282 5.063,-12.84 2.332,-7.871 5.667,0.27 7.541,1.984 5.707,-17.12 4.835,-6.77 8.279,-9.871 4.999,-0.882 h 7.356 l 10.735,2.603 9.368,3.554 5.749,4.47 2.868,2.869 5.748,-1.438 4.93,1.541 4.791,1.799 -0.777,-10.088 4.616,-2.769 2.412,-5.513 4.089,-4.089 2.322,-8.953 2.51,-2.233 1.755,-0.878 0.021,0.293 4.625,3.25 h 3.625 l 7.5,0.375 7.875,-0.25 5.75,-1.875 5.5,-5.375 h 2.25 l 1.625,1.75 1.125,2.375 1.625,5.375 3.75,1.125 5.5,5 0.023,0.66 -2.544,1.908 z" /></g><g
           transform="translate(670.8311,464.3672)"
           id="g84"><path
             id="path86"
             style="fill:#c9c8c6;fill-opacity:1;fill-rule:nonzero;stroke:none"
             d="m 0,0 -0.298,6.857 -6.369,4.778 -3.604,6.848 -1.472,9.122 -5.651,-0.802 -10.335,-0.714 -14.969,14.602 1.891,3.405 -1.099,3.023 -3.121,10.738 0.582,4.075 -1.754,1.227 -3.131,-2.013 v -3.681 h -8.046 l -12.411,3.593 -6.409,-2.244 -5.432,-0.339 -6.6,-1.39 -7.597,2.279 -2.598,4.418 -1.838,-2.021 -2.896,-5.43 -8.989,-2.158 -7.659,-1.596 -5.226,-4.572 -7.564,-3.095 -9.14,-3.121 -0.222,0.649 -3.323,-6.316 8.884,3.136 5.339,-2.669 0.337,-5.048 5.39,-3.032 V 21.06 l -6.007,-3.163 1.503,-4.508 4.005,-4.621 4.638,-3.093 -0.775,-4.649 1.349,-5.394 -1.176,-4.706 3.338,-2.386 8.971,1.381 8.482,-11.669 3.981,-4.344 0.296,-7.094 0.769,-2.306 6.75,-6.125 5.5,-5.625 -0.25,-6.375 1.75,-2 4.75,-1.25 1.625,2 2.625,0.75 3.625,-0.125 0.5,1.375 5.5,1.5 2.875,1.75 2.375,-1.125 h 6.875 l 3.625,0.5 2.5,2.625 5.875,0.25 1,1.875 1.25,2.875 0.375,4.125 1.875,2 7.125,2.125 6.375,0.875 2.5,1.25 1,3.375 3.125,4 4.75,4.375 2.5,3.125 0.125,3.5 3.75,0.5 3.043,0.392 0.006,5.743 z" /></g><g
           transform="translate(567.4585,440.7793)"
           id="g88"><path
             id="path90"
             style="fill:#c9c8c6;fill-opacity:1;fill-rule:nonzero;stroke:none"
             d="m 0,0 -7.469,10.265 -8.364,-1.288 -5.994,4.283 1.49,5.96 -1.318,5.271 0.558,3.352 -3.361,2.241 -4.661,5.379 -2.497,7.491 6.658,3.504 v 3.885 l -5.275,2.967 -0.33,4.953 -2.662,1.331 -10.733,-3.788 -0.002,0.004 -1.071,-2.035 -3.176,0.909 -9.943,-1.715 -10.931,7.762 -11.314,9.374 -9.545,0.955 0.113,1.128 -0.506,-0.092 -3.375,0.375 -0.75,-1.5 1,-0.75 0.5,-6.75 3.125,-5.75 v -2.875 l 3.625,-6.5 13.5,-18.125 -0.25,-1.5 -1.75,0.125 -1.25,-0.75 -0.125,-1.875 5.125,-4.75 4.375,-0.375 -0.375,-1.5 -2.875,-0.375 -1.25,-2.125 0.875,-1.75 0.75,-6.25 1.125,-0.75 1.75,-2.125 2.5,-3.375 1.625,-2.875 2,-0.125 5.75,-5.75 -0.125,-4 1.5,-1.625 3.25,-5.125 1.625,-4.125 0.75,-6.25 0.125,-7.875 22.75,-0.625 0.25,1.625 1.375,3.625 2,3.125 3.875,1 5.5,0.25 1.375,0.875 3.5,5.625 2.5,5.25 2.75,2.75 3.875,4 1.347,0.954 -0.114,2.727 z" /></g><g
           transform="translate(1010.75,652.25)"
           id="g92"><path
             id="path94"
             style="fill:#c9c8c6;fill-opacity:1;fill-rule:nonzero;stroke:none"
             d="m 0,0 -5.125,3.125 -0.125,2.75 -0.125,6.25 V 16.75 L -7,20.875 l -2,3 -0.5,3.75 1,4.25 -1.25,3.25 -2.375,5.125 -3.875,6.875 -2.5,6.875 1.375,2.375 -2.625,1.875 -3,-1.625 -2.5,-1.5 -0.875,1 -1.158,0.429 -5.999,-5.142 -4.115,-6.171 -7.992,-3.823 -7.513,-4.247 -7.041,-5.687 -4.087,-2.601 -9.411,0.698 -8.13,-0.326 -4.602,-0.92 -12.794,-8.316 -10.107,-17.28 -10.159,-23.603 9.892,-5.605 3.151,-5.119 -1.12,-8.207 -5.939,-8.909 v -3.935 l 6.748,-3.226 14.598,-5.31 15.971,-6.793 7.807,-7.025 V -71 l 5,3.75 1.75,10.125 7.5,7.5 0.125,3.5 0.875,2.25 2.5,1 1,2.625 -0.5,2.125 0.875,1 1.375,1 0.75,2.375 -1.375,0.625 -0.375,2.5 1,1.125 2.5,4.375 7.25,8.75 2.25,0.125 0.625,-1.875 3.375,1 6.625,1 1.75,0.625 6.375,-0.875 0.625,1.875 0.875,1.75 5.5,1 2.625,-1.5 4,-2.375 V -14 l -1,3.25 -0.25,3 1.625,2.375 2.375,0.625 1.5,1.5 z" /></g><g
           transform="translate(500.248,503.8564)"
           id="g96"><path
             id="path98"
             style="fill:#c9c8c6;fill-opacity:1;fill-rule:nonzero;stroke:none"
             d="m 0,0 9.779,-6.94 9.39,1.619 1.491,-0.426 5.361,10.187 -3.464,1.066 -5.777,6.86 -3.756,9.562 -3.423,9.922 -0.346,5.872 -0.002,10.088 -0.305,6.374 -5.093,5.392 -6.747,3.213 -8.318,4.587 -13.77,-16.72 -2.526,-5.05 -4.623,-1.683 -5.102,1.02 -3.784,-0.839 -2.53,4.555 1.121,3.362 -5.332,-2.423 -4.124,5.842 -3.667,-0.917 -3.308,2.315 -3.738,-1.067 -3.606,-2.525 -4.892,0.652 -3.104,-2.738 -3.402,-1.856 -2.681,-3.305 -4.546,-3.818 -4.999,-2.915 -4.224,4.228 -4.657,5.374 -0.283,3.674 -2.454,0.445 -7.426,0.595 -3.256,-1.688 -0.5,-5.5 -0.625,-3.25 -2.875,-2.875 -2,-2.375 -0.875,-2.5 -2.375,-0.5 -2.125,-1.25 -4,0.125 -1.375,-2.5 -0.5,-3.25 1.25,-3 1.625,-2.375 -0.25,-2.875 3.625,-3.25 1.75,-1.125 2.5,0.625 1.125,0.875 2.875,-0.875 3.25,-2 0.75,-3 -2,-1.625 -4.875,-2.75 -0.375,-1.5 0.75,-4.375 0.375,-5.5 -0.625,-2.625 -3.875,-0.75 -1.75,-2.25 -0.875,-3.75 -1.25,0.125 -0.75,-2.375 1.875,-1.375 2.625,-2.5 2.625,-0.375 2.25,1.875 0.25,1.375 1.375,2.875 1.75,0.625 1.25,-2.125 h 2 l 0.5,1.625 2.375,0.375 1.75,-2.125 h 3 l 1.375,1.5 4.625,2.875 1.25,-0.5 2.75,-1.375 1.5,-2.375 3.25,0.5 0.625,1.25 2.125,-0.25 2.625,1.125 3.875,-0.5 4.25,-4.875 5.25,-0.25 0.625,2.625 -2.25,0.875 -0.5,1.875 2.5,2.125 -0.25,5.375 1.375,3.875 7.125,-0.75 5.125,4.375 v 2.375 l 1.75,1.25 3.25,0.375 1.25,1.875 3.875,4.625 2.625,3.625 3.75,1.75 4.875,3.625 2.125,-0.625 6.5,-4 0.125,-4.125 1.5,-0.625 h 1.625 l 0.625,1 1.25,-0.375 -0.133,-1.394 8.281,-0.827 z" /></g><g
           transform="translate(649.6162,553.4521)"
           id="g100"><path
             id="path102"
             style="fill:#c9c8c6;fill-opacity:1;fill-rule:nonzero;stroke:none"
             d="m 0,0 -2.197,-1.568 -7.17,4.15 -7.327,4.661 -28.87,14.764 -2.386,-0.266 -9.622,-3.313 -9,-2.333 -7.726,-1.757 -5.848,1.463 -2.733,-5.469 -2.962,-10.202 -3.085,-11.892 -3.292,-6.949 -13.114,-3.698 -8.358,-12.86 -5.885,-8.534 7.142,2.437 7.018,2.873 5.442,4.761 8.385,1.748 7.633,1.832 2.563,4.708 4.704,5.174 4.067,-6.915 5.738,-1.721 6.174,1.283 5.127,0.321 6.924,2.423 12.923,-3.741 h 4.62 v 2.319 l 6.202,3.987 4.913,-3.439 -0.751,-5.26 2.91,-10.022 1.536,-4.216 -1.442,-2.596 12.365,-12.063 8.942,0.617 5.435,0.776 0.557,7.785 v 9.522 l 1.681,5.047 0.65,10.062 -0.365,9.519 3.617,1.974 -0.19,2.085 -4.543,3.936 -6.316,5.319 z" /></g><g
           transform="translate(609.9937,781.9995)"
           id="g104"><path
             id="path106"
             style="fill:#c9c8c6;fill-opacity:1;fill-rule:nonzero;stroke:none"
             d="m 0,0 1.871,-4.252 -0.536,-5.722 -0.738,-4.993 5.715,-8.81 -2.525,-3.647 0.345,-5.357 3.348,0.985 6.632,-7.235 -0.901,-5.082 -1.363,-5.307 -1.029,-2.059 0.853,-4.909 3.466,-4.62 -3.66,-4.786 -0.212,-3.823 1.194,-5.073 -6.009,-3.846 2.524,-5.047 9.289,-8.575 7.411,-2.151 4.964,-1.551 0.224,-2.018 5.82,2.629 11.271,-0.014 11.132,-1.484 9.064,0.239 4.464,2.114 6.532,2.994 7.751,-2.326 8.891,0.961 4.169,0.783 8.48,-1.028 6.5,-0.928 5.405,3.281 -0.001,11.658 h -2.094 l -4.53,-3.322 -2.779,3.574 -1.686,4.334 -2.996,2.434 -2.668,-1.111 -2.459,0.738 -5.917,-2.818 -3.647,5.636 -0.723,5.3 -3.286,3.085 -5.575,7.433 0.19,3.809 -3.446,-0.328 -8.991,-1.799 -10.618,2.451 -3.693,5.169 -8.51,0.973 -8.295,6.518 3.531,7.063 13.77,6.394 0.285,1.568 -1.769,4.549 0.428,1.712 -1.386,1.617 0.348,5.718 1.014,3.246 -5.284,6.726 -0.535,5.612 -0.937,4.682 -3.626,6.287 -3.109,5.022 -4.492,3.962 -0.987,6.423 L 29.741,30.523 26.79,28.72 22.507,26.398 15.341,25.167 H 13.622 L 10.234,20.326 4.328,19.035 0.673,18.331 -1.275,14.566 -0.159,6.371 Z" /></g><g
           transform="translate(743.8203,687.7969)"
           id="g108"><path
             id="path110"
             style="fill:#c9c8c6;fill-opacity:1;fill-rule:nonzero;stroke:none"
             d="m 0,0 5.011,2.05 5.666,3.348 6.003,0.805 h 6.375 l 11.847,-6.318 5.519,-6.774 9.916,-5.804 12.395,-4.861 8.221,-0.217 1.135,2.27 6.019,11.285 2.759,5.713 -0.303,0.055 -0.639,5.747 0.491,6.761 -1.765,6.587 -6.373,11.889 -4.141,5.825 -1.454,8.398 -0.521,11.318 4.353,7.462 -1.258,12.581 -9.482,-6.266 -4.428,0.152 -5.348,-8.851 -3.81,0.212 -7.654,-0.479 -3.982,-1.706 -5.188,-8.646 H 24.827 L 21.379,54.26 18.935,53.516 16.399,43.206 12.113,42.546 10.906,36.51 3.969,28.706 -4.153,20.621 -10.485,16.4 V 4.31 l 6.421,-3.668 z" /></g><g
           transform="translate(718.0381,686.0151)"
           id="g112"><path
             id="path114"
             style="fill:#c9c8c6;fill-opacity:1;fill-rule:nonzero;stroke:none"
             d="m 0,0 -7.989,0.968 -3.888,-0.724 -9.552,-1.033 -7.249,2.175 -5.485,-2.515 -5.019,-2.377 -9.936,-0.262 -11.27,1.503 h -10.327 l -6.118,-2.763 0.115,-1.038 -3.851,-3.851 -0.25,-5 -4.51,-4.51 -2.116,-3.81 3.997,-2.373 -0.075,-0.094 3.714,-2.418 2.875,-2.926 0.961,-1.523 1.261,1.352 5.376,1.853 5.735,0.383 2.291,-1.637 6.259,0.803 12.477,-4.218 4.313,-4.124 1.912,-4.857 h 2.448 l 4.735,2.427 6.816,2.21 6.223,-3.733 0.534,-4.811 1.725,-2.185 6.067,5.785 3.54,4.18 3.544,2.62 1.222,2.444 0.884,7.42 5.586,3.791 3.382,0.141 1.416,4.39 3.996,5.66 0.461,1.475 -3.403,2.784 -0.441,10.289 -4.855,-2.947 z" /></g><g
           transform="translate(813.293,667.064)"
           id="g116"><path
             id="path118"
             style="fill:#c9c8c6;fill-opacity:1;fill-rule:nonzero;stroke:none"
             d="m 0,0 -7.346,0.193 -13.205,5.199 -10.483,6.136 -5.482,6.726 -10.652,5.682 h -5.523 l -5.099,-0.695 -5.435,-3.193 -5.888,-2.409 -5.436,0.858 -5.35,3.058 0.411,-9.551 3.93,-3.216 -1.205,-3.858 -4.004,-5.673 -1.918,-5.944 -4.617,-0.192 -3.748,-2.542 -0.782,-6.581 -1.778,-3.555 -3.977,-2.94 -3.336,-3.987 -6.08,-5.798 1.192,-1.113 0.178,-5.879 1.323,-3.572 2.71,-0.824 4.455,1.198 4.176,-2.043 2.618,5.015 4.093,4.092 11.004,0.178 5.142,-0.355 11.893,-4.927 12.45,-4.647 14.239,-4.967 6.791,-1.698 3.843,-2.124 3.723,8.723 12.648,26.924 7.033,14.685 0.307,1.993 -2.844,1.565 z" /></g><g
           transform="translate(893.666,663.4141)"
           id="g120"><path
             id="path122"
             style="fill:#b2c9ec;fill-opacity:1;fill-rule:nonzero;stroke:none"
             d="m 0,0 c 0,0 10,23 35.334,27 0,0 16.666,-1.333 24.666,5.333 0,0 17.637,15.971 26.311,14.004 l -4.776,-4.081 -2.832,-4.247 -1.759,-1.918 -6.59,-3.153 -7.757,-4.38 -7.139,-5.753 -3.176,-2.02 -1.982,0.147 c -2.988,0.507 -7.398,0.909 -12.419,0.256 L 35.275,21.084 29.759,20 26.171,17.668 C 23.816,16.5 21.46,15.006 19.164,13.114 L 15.887,10.983 14.428,8.488 C 11.479,5.108 8.727,0.901 6.334,-4.333 l -1.41,-3.703 -13.93,-32.364 -9.617,-16.251 -1.629,-4.133 c -1.166,-1.89 -2.172,-3.414 -2.924,-4.39 l -1.197,-0.798 -4.134,-5.408 -5.196,-0.974 -5.17,-4.827 -6.68,-3.498 -10.953,-3.043 c -3.248,-0.47 -6.794,-0.655 -10.629,-0.415 l -8.416,2.243 -8.564,-0.95 -3.157,3.156 -4.552,3.516 -10.199,6.909 -7.218,7.56 -8.225,1.645 c -7.012,2.441 -17.327,5.942 -18.2,5.724 L -146.332,-51 c 0,0 -2.314,0.794 -5.322,0.768 l -1.847,0.384 -2.156,-0.958 c -0.933,-0.278 -1.866,-0.678 -2.767,-1.229 l -1.823,-0.811 -4.505,-5.199 -7.282,-6.951 -0.708,-0.894 -2.924,-2.777 -4.907,-4.171 -1.763,-1.1 -4.82,-5.857 -2.312,-3.453 h -3.485 l -2.639,-5.649 -3.325,-3.565 c -1.006,-0.557 -2.239,-1.017 -3.749,-1.205 0,0 -5.668,0.001 -8.668,-6.333 0,0 -2.456,-4.005 -7.004,-6.305 l -3.135,-0.921 -6.263,0.642 -5.932,0.382 -1.347,-1.636 c -0.734,-0.408 -1.424,-0.987 -1.985,-1.829 0,0 -0.472,-0.669 -1.231,-1.107 l -5.715,4.572 -1.16,-0.827 c -0.503,-0.068 -1.087,-0.284 -1.754,-0.681 l -5,2.894 -7.333,4.667 -29.455,15.07 -0.401,0.204 -2.375,-0.263 -0.909,0.471 c 0,0 -2.94,-1.355 -7.127,-2.964 l -2.972,-1.014 -8.899,-2.307 -6.984,-1.588 -5.309,1.328 -0.067,0.61 11.39,2.4 9.425,2.358 9.587,3.052 -14.904,16.021 -8.286,9.667 -7.088,2.126 -5.597,0.645 c -0.206,0.057 -0.42,0.119 -0.636,0.183 l -3.678,1.98 -2.546,2.183 -15.653,2.133 -1.318,-0.846 -0.338,0.033 c 0,0 -0.148,-0.21 -0.41,-0.515 l -2.318,-1.489 -2.44,1.33 -2.61,5.871 -21.66,17.26 -11.842,8.797 -6.988,2.541 c -0.109,0.089 -0.224,0.182 -0.345,0.277 l -4.739,5.754 -4.129,-0.414 0.079,-0.791 -8.364,7.166 -13.361,10.02 -18.7,13.356 -13.3,8.977 -9.334,6.667 -18.461,8.091 -16.153,11.538 -11.189,9.543 -10.193,12.161 -7.458,10.17 -5.434,4.2 -0.123,-0.1 c -0.441,0.293 -0.847,0.504 -1.195,0.59 0,0 3.667,7 11.333,0 0,0 22.667,-30.333 36,-31.333 0,0 18,-9.667 24.667,-15 0,0 17,-15.333 25.333,-12.667 l 6.897,1.592 1.955,-1.598 10.624,-7.637 9.937,-6.954 6.87,-5.361 9.393,-6.875 8.778,-5.796 8.062,-6.418 6.952,-6.62 8.658,-5.634 8.18,-6.508 10.847,-7.626 6.568,-2.189 7.135,1.252 5.344,1.295 6.237,0.153 3.793,-2.276 6.991,-3.5 3.236,1.078 3.066,-0.511 2.233,-2.792 6.039,-10.656 h 2.058 l 7.528,-2.905 5.227,-7.227 1.266,-5.535 2.531,-7.083 3.56,-2.769 4.529,-1.393 2.72,-1.12 3.846,-1.923 2.399,-1.714 8.641,-3.219 9.333,-3.833 10.117,-3.209 6.944,-0.423 5.861,3.02 7.622,4.736 10.103,6.461 6.248,3.571 2.273,4.895 4.425,4.898 3.45,2.666 7.79,3.982 4.514,8.333 4.369,6.219 0.015,-0.008 0.059,0.111 0.634,0.904 -0.114,0.095 2.648,5.072 2.907,2.908 9.663,0.156 4.525,-0.312 11.491,-4.759 12.53,-4.677 14.333,-5 6.607,-1.658 3.768,-2.082 -0.019,-0.043 1.245,-0.635 1.167,-0.646 0.022,0.04 4.939,-2.521 11.61,-4.801 16.027,-4.118 12.724,0.39 10.042,3.883 4.756,6.869 2.242,3.186 8.317,6.361 7.749,8.615 6.13,7.478 3.864,2.834 2.91,5.291 1.746,6.41 3.67,10.642 2.625,3.939 z" /></g></g></g></g></svg>