<svg id="Layer_2" data-name="Layer 2" xmlns="http://www.w3.org/2000/svg" viewBox="0 0 723.75 555.5">
  <defs>
    <style>
      .cls-1 {
        fill: #d2d1cf;
      }

      .cls-2 {
        fill: #bbcfeb;
      }

      .cls-3 {
        isolation: isolate;
        font-size: 12px;
        font-family: NotoSansKR-Bold-KSCpc-EUC-H, Noto Sans KR;
      }
    </style>
  </defs>
  <polygon class="cls-1" points="365.658 153.522 369.025 158.961 372.923 165.714 373.993 171.108 374.451 175.92 380.167 183.194 378.738 187.768 378.529 191.73 380.144 193.613 379.571 195.901 381.302 200.352 380.587 204.284 366.357 210.89 364.389 214.827 370.093 219.309 379.083 220.336 382.891 225.666 391.772 227.716 400.357 226.007 407.335 225.343 407.025 231.534 411.869 237.993 415.664 241.516 416.441 247.216 418.294 250.08 422.877 247.897 425.418 248.66 428.75 247.271 433.754 251.337 435.568 256.002 436.289 256.929 439.259 254.75 442.632 254.75 449.879 249.919 457.607 242.19 463.943 235.059 465.402 227.762 469.784 227.087 472.249 217.064 477.471 215.475 481.356 217.417 483.485 217.417 488.298 209.397 493.649 207.103 501.997 206.582 504.185 206.703 509.504 197.888 514.741 198.069 523.682 192.159 524.443 188.985 522.942 184.484 521.481 181.471 517.957 182.588 514.912 183.25 508.977 183.398 507.103 179.796 502.023 176.514 497.515 172.634 488.354 162.504 487.411 163.442 483.527 166.412 482.073 170.775 476.746 176.622 470.23 182.414 468.664 185.808 453.525 194.639 454.542 188.2 449.828 187.293 441.948 189.657 432.322 182.311 428.244 182.791 421.833 179.687 415.956 175.146 413.721 167.88 414.339 163.141 407.177 161.387 399.474 158.199 395.892 152.314 392.157 149.825 390.066 146.572 386.058 145.628 381.034 141.398 374.01 134.845 363.5 140.625 361.375 143.875 360.676 143.655 361.65 149.985 365.658 153.522"/>
  <polygon class="cls-1" points="387.442 142.873 391.934 143.929 394.343 147.676 398.108 150.186 401.526 155.802 408.216 158.57 417.661 160.86 416.779 167.621 418.544 173.354 423.541 177.216 428.756 179.71 433.178 179.19 442.552 186.344 449.672 184.208 457.958 185.801 457.475 188.862 466.336 183.693 467.769 180.587 474.693 174.433 479.427 169.226 480.973 164.589 485.51 161.119 486.313 160.316 481.961 153.891 476.4 150.832 476.365 150.987 475.978 150.6 475.611 150.398 475.67 150.292 472.439 147.061 466.313 140.419 460.172 132.485 457.448 125.056 453.607 120.99 446.558 117.717 441.041 111 434.918 110.963 428.726 109.556 425.66 103.425 426.47 100.185 424.717 99.528 425.279 82.372 428.048 80.757 427.226 77.054 428.079 71.363 431.657 67.069 431.308 64.97 429.297 60.948 424.421 56.843 422.187 48.404 415.843 43.835 414.514 33.199 411.375 32.75 408.5 33.375 406.5 35.25 403.125 34.375 400.375 35 398 36.5 396.25 38.5 393.125 42.5 390.875 43.375 389.125 44.75 389.75 47.875 391.375 52.25 392.875 60.625 391.75 72.75 380.875 78.875 377.375 87.625 370.375 92.75 367.875 93.75 368 96.875 370.625 98.5 371.375 103.25 376.75 114 374.125 120.625 377.5 122.5 379 126.5 376.344 132.919 383.023 139.154 387.442 142.873"/>
  <polygon class="cls-1" points="180.213 269.202 190.195 276.188 197.091 281.568 206.388 288.374 215.269 294.244 223.536 300.832 230.434 307.401 238.935 312.911 247.102 319.411 257.518 326.731 262.95 328.541 269 327 274.965 326.084 282.233 325.908 286.724 328.602 292.45 331.465 295.214 330.543 300.148 331.365 303.307 335.345 308.351 344.248 308.375 344.185 309.41 344.584 309.441 344.584 313.548 344.255 319.667 343.941 321.843 342.446 328.671 334.967 332.498 329.707 334.589 323.954 337.426 322.003 341.079 316.745 340.694 314.694 340.021 310.488 339.265 304.641 342.08 301.156 338.799 299.209 334.677 300.408 329.01 301.074 322.968 302.079 306.281 303.565 299.354 305.593 294.614 305.403 284.821 300.421 278.176 297.294 279.053 291.812 280.467 288.726 277.61 286.582 261.651 280.638 260.1 278.052 244.877 270.072 236.043 262.739 236.261 262.477 222.383 251.077 212.185 242.217 200.548 230.902 198 233.125 197.25 238.125 192.625 241.5 192.375 244.375 194 245.25 194 248.625 193.25 249.25 192.25 252.75 189.25 254.125 183.5 256.375 175.375 258.75 170.08 261.908 171.195 262.688 180.213 269.202"/>
  <path class="cls-1" d="M858.113,503.71l-4.717,2.83-6.707,4.116-2.889-4.249-3.149-3.778-2.771.477c-.012.002-2.388.393-4.766.777-1.191.192-2.383.383-3.277.522-.489.076-.92.143-1.294.174-.426.238-.977.503-1.667.835-1.149.554-2.685,1.288-4.22,2.02-2.736,1.306-5.476,2.608-6.034,2.874l-6.206,4.208,1.467,3.054,1.803,5.407-.049.201,1.904,19.035-4.397,7.538.476,10.337,1.3,7.446,3.903,5.509,6.627,12.445,1.94,7.245-.509,6.99.361,3.253,4.401.8,8.538.972,9.65-.366,9.635-1.807,4.9-2.868,2.085-1.346-.077-2.859.625-1.25,2.625-3.875.875-2.125.25-2.5,1-1.125,2.625-1.375,2.375-1.75,3.375-1.75,1.25-3.875,1.125-4.625,1-4,2-4.5,1-2.5,3.25-2,1.75-1,1.75-1.625.375-2.375-.5-3.375-1.5-3.25L888,544.253l.875-1.875,2-2.75,2.375-2.75.625-2.75.25-5.125-.625-2.5-1.75-2.875-.25-1.625,1.375-1.875-.375-3.5-.125-4.5-.25-3.75-.25-2.125-3.125-2.875s-4.125-1.625-4.5-1.75-4.25-1.25-4.25-1.25l-5.75.625-2.441-.665-6.823,2.635Z" transform="translate(-286.125 -334.12799)"/>
  <polygon class="cls-1" points="418.657 42.165 424.813 46.597 427.079 55.159 431.703 59.053 434.192 64.031 434.843 67.932 430.921 72.638 430.274 76.947 431.452 82.244 428.221 84.129 427.783 97.473 430.03 98.316 428.84 103.076 430.774 106.945 435.418 108 442.459 108 448.442 115.284 455.393 118.511 460.052 123.445 462.828 131.016 468.646 138.531 474.634 145.015 476.348 137.4 481.095 130.279 479.946 126.833 484.335 124.2 486.05 120.526 490.468 117.212 495.53 123.053 495.808 119.838 496.75 116.54 496.75 114.386 494.044 109.465 493.251 102.544 493.012 94.405 488.777 86.686 488.027 76.434 483.429 68.002 485.822 55.041 488.032 48.165 489.253 39.373 489.501 31.454 489.763 27.052 489.923 25.851 489.25 24 489.125 20.875 488.625 18.125 487.5 15.25 485.75 12 484.375 12.375 482.625 13.75 480.5 15.125 478.625 14.125 477 12.25 474.5 10.25 473.125 10.875 470.125 13.125 468.375 15.625 465.625 16.875 461.125 17.375 460 19.375 458.125 19.875 457.25 18.375 456.375 15.875 455.625 13.375 454.125 9.25 452.75 6 450.25 2.625 446.625 0.875 442.75 0 438.25 1.375 430.125 3.125 425.875 4.5 421.875 5.625 419.25 7.875 417.25 12.125 416.375 15 415.75 18.5 414.625 22.5 415 24.375 416.5 26.75 417.625 29.5 416.974 30.848 417.238 30.814 418.657 42.165"/>
  <path class="cls-1" d="M778.622,365.716l-.262,8.119-1.308,9.252-2.22,6.908-2.137,11.631,4.401,8.069.75,10.248,4.266,7.78.259,8.796.709,6.144,2.794,5.079v3.345l-1.016,3.556-.765,9.932-7.938-9.159-1.582,1.186-1.785,3.826-3.111,1.867.852,2.555-5.253,7.879-2.066,9.185,6.953,3.825,4.979,7.35.098-.089,10.557,11.675,4.226,3.622,5.499,3.535,1.377,2.648,3.915-.098,2.542-.578,5.223-1.662,6.653-4.495c3.688-1.753,8.931-4.252,11.139-5.321l-.044-.179,2.663-.89.093.227c1.871-.288,5.725-.914,8.3-1.338l4.467-.77,4.392,5.282,1.32,1.941,4.28-2.626,5.296-3.178,7.128-.764,3.312-1.301,1.363-.523,1.186-1.581.125-3.5,1.25-2.5.75-1.625,1.375-2.125,3.25-2,2.125-2.125,1.25-2,1.375-1.75.75-5.625.25-2.125v-3.875l-.25-3.875-.25-3.75-1-3.25-2.625-2.875-4.75-3.375s-5.25-2.25-5.625-2.25-2.875-.375-2.875-.375l-2.625.25-2.875.5-3.25.5-4.25-.25-2.125-3.875-2.25-3,1.125-.75.75-2.125.625-1.75.5-2.25-1-4.5-2.375-1.25.125-2.375-.75-2-.125-3.5.5-1.375,1.25-1.75,1.375-1.75,1.875-2.5-.5-2.5-.375-5,.875-1.125.875-2,1-2.5.5-2.25v-2.625l-1.75-3.125-2.125-2.5-.25-2.375-.625-2.5-.875-1.75-1.5-2.25-.25-2.875,1.375-2.25,1.5-2.25,1.625-2.875,2.5-3.375.375-2.375-.5-3.75-1-2.625-2.75-1.125-3.25-1.375-3.125.5-4-.875-3.125-1.375-1.75-3.25-.5-1.75-1.875-3.5-3-3.75-4.5-.5-3.125.75-2.5.5-4.125,2-2.125,1.125-3.25.5-3-.25-2.875-.625-5.375-1.125-2.875.625-.5,1.625-1,2.375-2.125,2.75-3.75,2.375-2.5,1.75-2.25,1.25-2.25.5-2.049,1.844-.207,1.549Z" transform="translate(-286.125 -334.12799)"/>
  <polygon class="cls-1" points="572.408 271.302 561.932 273.249 551.943 273.629 543.08 272.616 539.75 272.012 536.601 278.528 530.573 289.832 529.236 292.506 531.392 293.692 530.699 298.198 530.602 298.398 523.477 313.273 510.857 340.138 507.055 349.051 511.878 351.512 523.225 356.199 538.545 360.121 543.086 360.001 550.321 359.76 559.029 356.393 565.781 346.699 574.352 340.145 581.758 331.874 588.238 324.04 591.721 321.487 594.223 316.938 595.832 310.887 599.752 299.668 602.284 295.87 601.666 295.558 599.875 293 596.75 291.5 594.125 293.375 591.375 295.25 586.75 299.125 585.125 297.75 582.875 295.5 579.625 293.25 579.5 291.125 580.375 286.875 581.75 281.375 582.875 275.625 583.75 271.625 583.125 268.5 580.875 266.5 580.473 266.42 577.813 268.136 572.408 271.302"/>
  <polygon class="cls-1" points="346.281 288.349 346.531 283.349 350.18 279.7 349.867 276.89 346.803 275.932 338.742 273.592 328.531 264.166 324.555 256.214 331.046 252.06 330.24 248.633 330.528 243.456 333.368 239.742 330.834 236.362 329.687 229.771 331.084 226.977 332.282 222.188 332.894 218.719 328.526 213.954 323.374 215.469 322.72 205.326 324.694 202.473 319.915 195.105 318.161 195.715 315.702 196.262 313.035 199.818 310.79 203.084 306.595 203.084 305.022 205.184 303.418 206.673 304.481 209.671 305.081 213.269 302.632 216.83 298.258 218.396 294.707 219.013 286.975 223.748 282.168 229.155 282.168 232.998 282.82 238.647 275.994 239.865 275.542 239.413 274.994 241.213 273.517 242.691 272.367 247.1 260.24 248.772 259.296 242.54 256.636 241.073 255.47 244.222 239.284 261.53 246.67 267.662 262.237 275.783 263.685 278.197 279.06 283.92 284.203 287.776 281.95 292.69 281.494 295.54 286.14 297.727 295.389 302.432 298.983 302.576 305.868 300.59 322.644 299.096 328.588 298.105 334.198 297.443 339.204 295.96 340.012 296.44 342.291 292.338 346.281 288.349"/>
  <polygon class="cls-1" points="324.396 356.453 325.777 362.496 327.933 368.5 330.372 370.398 334.571 371.697 337.506 372.909 341.707 375.03 343.878 376.582 352.192 379.679 361.515 383.506 371.273 386.597 376.843 386.898 381.927 384.279 389.375 379.644 399.527 373.154 405.009 370.019 407.07 365.581 412.085 360.065 415.985 357.082 423.071 353.46 427.274 345.722 430.775 340.741 427.855 339.344 423.643 340.478 418.686 338.97 416.676 333.542 416.521 328.421 414.325 326.347 411.559 322.844 411.093 318.656 407.315 316.389 401.915 318.14 396.867 320.751 391.646 320.751 389.227 314.608 385.872 311.399 374.683 307.616 367.941 308.48 365.566 306.783 361.302 307.068 357.01 308.547 353.605 312.198 350.656 307.527 348.222 305.093 344.625 302.78 342.405 305.528 342.989 310.059 343.649 314.18 344.258 317.424 339.577 324.165 337.081 325.881 335.172 331.128 330.943 336.929 323.685 344.821 320.668 346.894 316.012 347.132 318.29 348.011 324.396 356.453"/>
  <polygon class="cls-1" points="254.384 427.127 267.271 423.492 269.917 417.905 272.882 406.376 275.993 395.747 279.127 389.476 278.692 385.563 292.692 382.616 301.971 380.295 306.957 378.706 295.236 366.105 287.482 357.061 281.367 355.226 275.212 354.543 270.358 351.889 268.36 350.177 254.68 348.311 249.73 351.494 244.837 348.824 242.112 342.695 221.066 325.923 209.616 317.419 202.103 314.687 197.685 309.322 196.612 309.43 198.036 313.131 201.382 319.519 201.473 319.441 207.676 326.747 212.069 335.548 216.545 347.256 215.415 354.413 210.304 360.253 204.479 363.68 201.506 365.761 199.549 369.676 200.127 374.01 202.538 379.52 201.735 386.477 210.726 391.437 217.899 394.851 224.14 401.458 224.499 409.013 224.501 419.084 224.82 424.457 228.086 433.928 231.641 442.972 236.531 448.781 239.391 449.661 245.433 440.899 254.384 427.127"/>
  <polygon class="cls-1" points="629.747 372.464 615.02 367.104 606.501 363.03 606.501 356.296 612.561 347.206 613.442 340.747 611.259 337.2 602.324 332.136 599.292 339.181 589.686 355.411 586.559 363.404 583.373 365.527 578.843 371.453 573.373 372.478 568.543 376.986 561.069 380.863 548.783 384.247 539.861 384.933 529.887 382.273 522.293 383.117 521.856 385.738 524.144 398.146 525.441 407.228 529.311 413.48 536.437 415.65 549.373 418.964 575.005 426.72 589.469 437.051 597.937 451.617 607.907 466.24 613.968 474.669 620.147 485.402 620.5 485.666 620.5 483.375 622.5 482.625 625.125 485.375 631.75 486 634.625 485.625 640.875 484.25 641.5 483 638.875 479.875 634.25 479 630.125 475.625 629.875 470.125 633.125 468 642 472.875 645.625 472.75 658.125 463.375 659.375 460.75 661.5 456.75 663.375 453 663.875 449.875 667.125 449.25 670 446.25 670.375 443.125 680.25 434.625 680.375 426.375 681.375 425.375 681.625 421.375 682.875 420.25 681.875 416.25 679.625 414.625 677.375 410.125 675.5 410.375 674.375 412.25 672.25 411.375 670.875 408.25 665.375 403.625 663.75 405.625 662 408.375 656.25 410.125 648.875 406.625 648.625 404 647.875 401.75 646.25 398.625 648.375 391.375 651.125 389.375 650.5 386.125 652.418 385.544 645.184 379.033 629.747 372.464"/>
  <polygon class="cls-1" points="105.308 329.432 107.682 322.989 110.651 319.427 114.046 323.387 115.25 328.606 114.623 329.86 117.729 331.771 121.67 333.742 122.833 340.083 122.833 345.044 125.722 350.515 128.683 357.754 131.782 363.108 169.607 357.12 170.157 350.803 169.101 344.113 171.167 340.668 171.167 335.569 166.746 329.448 167.902 322.97 169.638 317.455 172.366 311.546 181.439 317.463 187.66 320.885 195.123 320.263 198.076 319.672 195.267 314.29 193.736 310.309 184.691 302.556 171.434 292.617 152.795 279.305 139.494 270.327 130.256 263.729 111.795 255.638 95.36 243.892 83.85 234.047 73.517 221.714 66.249 211.808 60.419 207.303 60.375 207.875 59.625 209.125 58.125 210.125 56.75 211.5 56.375 219.125 59.125 224 60.375 226.625 61.625 229.25 61.75 232.75 61.25 237 59 238 56.375 241.375 53.75 245.125 53.5 247.25 51.875 249.875 49.375 253.875 49.125 259.125 48.5 257.75 48.25 256.25 46.625 255.25 45.125 257.25 42.625 259.625 40 261.625 36.5 264.375 31.25 267.25 31.125 270.125 29.75 270.25 28.375 273 30 274.625 30.875 276.125 28.625 276.5 26 279.125 24.125 278.875 21.875 277.75 20.25 279.25 19.875 281.5 21.25 283.375 23.25 288.625 23.625 294.5 22.75 293.25 20.5 291.625 18.625 293.5 15.625 298.75 14.125 300.125 9.75 299.625 6.5 300 3.375 301.75 0.25 304.125 0 305.875 13.25 320 19.5 319.875 26.875 326 40.25 326.5 46.25 330.875 46.75 334.625 48.5 335.25 50.5 335.875 50.875 337.375 49.375 338.25 48.875 341 50.5 342.875 51.625 347.5 53 347.75 61.625 341.75 62 340.375 64.375 337.625 67 335.125 69.25 333.5 72.125 331.625 75.625 331.5 76.25 332.5 77.5 334.75 79.875 336 83.125 337.25 98.375 337 98.553 339.402 102.42 334.246 105.308 329.432"/>
  <polygon class="cls-1" points="111.269 400.942 116.075 401.815 116.458 406.809 120.433 411.394 122.911 413.873 125.799 412.188 129.921 408.7 132.685 405.245 136.462 403.185 140.179 399.839 145.287 400.519 148.347 398.377 153.943 396.779 157.301 399.129 161.634 398.046 165.51 403.539 174.845 399.294 171.966 407.932 172.769 409.376 174.985 408.884 179.883 409.864 182.594 408.878 184.84 404.467 190.84 397.133 198.562 387.804 199.464 379.981 197.209 374.825 196.453 369.159 199.163 363.74 202.907 361.124 208.365 357.914 212.587 353.088 213.457 347.579 209.293 336.688 205.075 328.253 200.008 322.341 195.458 323.246 187.007 323.95 179.848 320.007 173.634 315.955 172.403 318.623 170.794 323.773 169.921 328.719 174.167 334.598 174.167 341.498 172.233 344.722 173.177 350.698 172.393 359.715 130.218 366.393 125.945 358.986 122.973 351.72 119.833 345.79 119.833 340.223 118.997 335.759 116.214 334.361 110.711 330.975 112.084 328.229 111.288 324.78 110.683 324.074 110.318 324.512 107.953 330.855 104.867 335.984 98.867 343.984 98.763 343.906 98.875 349.375 102.625 354.375 103.125 356.75 104.375 358.375 106.75 359.5 108.875 360.5 109 366.125 106.625 368.25 105.375 371.375 104.75 376.625 104.125 382.5 102.625 385.375 101.25 386.75 101.25 390.125 102.75 390.75 103.5 392.125 104 395.875 102.25 395.75 101.375 398.5 102 401.125 102.696 401.404 102.788 400.255 111.269 400.942"/>
  <polygon class="cls-1" points="562.663 500.57 560.318 491.523 556.407 487.612 554.151 482.458 548.768 479.228 549.325 471.982 548.86 472.156 543.046 473.976 538.128 472.746 536.255 474.603 530.077 479.407 520.021 483.209 508.668 485.918 500.74 485.896 494.535 484.8 485.447 473.957 480.316 466.773 475.355 451.893 470.072 453.249 461.897 453.639 458.915 443.574 453.938 430.969 445.918 412.579 440.918 398.246 435.87 385.077 433.326 373.627 429.601 370.895 425.336 373.56 420.874 378.979 417.804 383.584 414.623 383.584 412.592 387.933 407.513 393.378 400.819 395.721 390.791 405.749 384.475 407.607 377.68 406.91 373.338 406.63 370.204 410.436 373.967 413.604 379.44 418.347 379.917 423.596 376.202 425.623 376.503 433.438 375.757 444.226 374.168 448.995 374.164 458.191 373.628 465.69 375.442 476.937 378.504 482.754 385.469 487.977 385.837 496.454 385.168 503.82 385.168 507.725 386.375 506.875 394.5 500.125 398.375 499.625 401.5 495.875 401.25 493.5 399.125 490.625 399.625 489 410 489.375 410.875 492.5 414.5 500.875 420 508.875 431.875 515.75 434 513.75 433.875 511.25 436.125 510.5 437.875 512.625 440.125 512.5 443.5 511 451.875 504.5 452.75 500.25 457.875 492 459.875 492.25 464.25 495.625 463.5 497.625 462.5 503.125 465.125 506.25 466 509.5 467.5 511.375 463.375 515.125 464.125 518 468.375 523.75 469 526.125 466.75 527.5 467.25 530.625 469.5 531.625 470 533.75 467.75 536.875 464.75 541.75 465.625 546.875 469.625 547.875 474.875 549.25 478.875 553.5 486.5 554.75 527.75 554.375 532.75 549.75 533.625 547.75 529.75 545.125 529.5 540.375 538.625 540.125 542.125 542.375 547.125 541.875 551.5 535.125 555.875 534.875 557.875 531.625 558.25 522.875 561.125 519.375 561.125 517 562.625 516.625 567.625 511.875 569.125 509.375 569.375 505.375 569.381 505.286 566.152 503.671 562.663 500.57"/>
  <polygon class="cls-1" points="611.406 476.232 605.451 467.961 595.371 453.171 587.199 439.118 573.663 429.449 548.566 421.853 535.629 418.538 527.356 416.021 522.56 408.273 521.183 398.629 518.811 385.763 519.394 382.265 516.341 379.214 512.086 375.939 501.583 368.787 494.909 361.795 481.821 359.161 470.821 355.161 461.618 352.204 452.502 350.317 447.249 352.653 443.037 357.502 435.78 364.43 432.142 369.039 436.01 371.875 438.774 384.317 443.734 397.213 448.731 411.537 456.709 429.819 461.772 442.659 464.104 450.53 469.771 450.26 477.313 448.276 483.019 465.396 487.854 472.165 496.133 482.037 501.132 482.918 508.488 482.918 519.224 480.316 528.591 476.762 534.34 472.291 537.208 469.423 542.956 470.861 547.887 469.32 552.677 467.521 551.9 477.609 556.517 480.378 558.929 485.891 563.018 489.98 565.339 498.933 567.85 501.165 569.604 502.043 569.625 501.75 574.25 498.5 577.875 498.5 585.375 498.125 593.25 498.375 599 500.25 604.5 505.625 606.75 505.625 608.375 503.875 609.5 501.5 611.125 496.125 614.875 495 620.375 490 620.398 489.341 617.854 487.433 611.406 476.232"/>
  <polygon class="cls-1" points="382.831 496.383 382.533 489.526 376.164 484.748 372.56 477.9 371.088 468.778 365.437 469.581 355.102 470.294 340.133 455.692 342.024 452.288 340.925 449.264 337.804 438.526 338.386 434.452 336.632 433.224 333.501 435.238 333.501 438.918 325.455 438.918 313.044 435.326 306.635 437.569 301.203 437.909 294.603 439.298 287.006 437.019 284.408 432.601 282.57 434.623 279.674 440.052 270.685 442.21 263.026 443.806 257.8 448.378 250.236 451.473 241.096 454.594 240.875 453.946 237.551 460.261 246.435 457.125 251.774 459.794 252.111 464.842 257.501 467.874 257.501 475.324 251.494 478.486 252.997 482.995 257.002 487.616 261.64 490.708 260.865 495.357 262.214 500.751 261.038 505.457 264.376 507.843 273.347 506.462 281.829 518.131 285.81 522.475 286.106 529.569 286.875 531.875 293.625 538 299.125 543.625 298.875 550 300.625 552 305.375 553.25 307 551.25 309.625 550.5 313.25 550.625 313.75 549.25 319.25 547.75 322.125 546 324.5 547.125 331.375 547.125 335 546.625 337.5 544 343.375 543.75 344.375 541.875 345.625 539 346 534.875 347.875 532.875 355 530.75 361.375 529.875 363.875 528.625 364.875 525.25 368 521.25 372.75 516.875 375.25 513.75 375.375 510.25 379.125 509.75 382.168 509.358 382.174 503.616 382.831 496.383"/>
  <polygon class="cls-1" points="279.458 519.971 271.989 509.707 263.626 510.994 257.631 506.711 259.122 500.751 257.804 495.48 258.362 492.128 255 489.887 250.339 484.508 247.842 477.017 254.501 473.513 254.501 469.628 249.225 466.661 248.895 461.708 246.233 460.377 235.5 464.165 235.498 464.162 234.428 466.196 231.251 465.288 221.308 467.002 210.377 459.24 199.063 449.866 189.519 448.911 189.631 447.784 189.125 447.875 185.75 447.5 185 449 186 449.75 186.5 456.5 189.625 462.25 189.625 465.125 193.25 471.625 206.75 489.75 206.5 491.25 204.75 491.125 203.5 491.875 203.375 493.75 208.5 498.5 212.875 498.875 212.5 500.375 209.625 500.75 208.375 502.875 209.25 504.625 210 510.875 211.125 511.625 212.875 513.75 215.375 517.125 217 520 219 520.125 224.75 525.875 224.625 529.875 226.125 531.5 229.375 536.625 231 540.75 231.75 547 231.875 554.875 254.625 555.5 254.875 553.875 256.25 550.25 258.25 547.125 262.125 546.125 267.625 545.875 269 545 272.5 539.375 275 534.125 277.75 531.375 281.625 527.375 282.972 526.421 282.858 523.694 279.458 519.971"/>
  <polygon class="cls-1" points="722.75 308.5 717.625 305.375 717.5 302.625 717.375 296.375 717.375 291.75 715.75 287.625 713.75 284.625 713.25 280.875 714.25 276.625 713 273.375 710.625 268.25 706.75 261.375 704.25 254.5 705.625 252.125 703 250.25 700 251.875 697.5 253.375 696.625 252.375 695.467 251.947 689.468 257.089 685.353 263.26 677.361 267.082 669.848 271.329 662.807 277.017 658.72 279.617 649.309 278.92 641.179 279.245 636.577 280.165 623.783 288.481 613.676 305.761 603.517 329.365 613.409 334.969 616.56 340.088 615.44 348.295 609.501 357.205 609.501 361.139 616.249 364.366 630.847 369.675 646.818 376.468 654.625 383.494 654.625 379.5 659.625 375.75 661.375 365.625 668.875 358.125 669 354.625 669.875 352.375 672.375 351.375 673.375 348.75 672.875 346.625 673.75 345.625 675.125 344.625 675.875 342.25 674.5 341.625 674.125 339.125 675.125 338 677.625 333.625 684.875 324.875 687.125 324.75 687.75 326.625 691.125 325.625 697.75 324.625 699.5 324 705.875 324.875 706.5 323 707.375 321.25 712.875 320.25 715.5 321.75 719.5 324.125 719.5 322.5 718.5 319.25 718.25 316.25 719.875 313.875 722.25 313.25 723.75 311.75 722.75 308.5"/>
  <polygon class="cls-1" points="212.248 456.894 222.027 463.834 231.417 462.215 232.908 462.641 238.269 452.454 234.805 451.388 229.028 444.528 225.272 434.966 221.849 425.044 221.503 419.172 221.501 409.084 221.196 402.71 216.103 397.318 209.356 394.105 201.038 389.518 187.268 406.238 184.742 411.289 180.119 412.971 175.017 411.951 171.233 412.79 168.703 408.235 169.824 404.873 164.492 407.296 160.368 401.455 156.701 402.372 153.393 400.056 149.655 401.123 146.049 403.648 141.157 402.996 138.053 405.734 134.651 407.59 131.97 410.895 127.424 414.713 122.425 417.628 118.201 413.4 113.543 408.026 113.261 404.352 110.807 403.907 103.381 403.312 100.125 405 99.625 410.5 99 413.75 96.125 416.625 94.125 419 93.25 421.5 90.875 422 88.75 423.25 84.75 423.125 83.375 425.625 82.875 428.875 84.125 431.875 85.75 434.25 85.5 437.125 89.125 440.375 90.875 441.5 93.375 440.875 94.5 440 97.375 440.875 100.625 442.875 101.375 445.875 99.375 447.5 94.5 450.25 94.125 451.75 94.875 456.125 95.25 461.625 94.625 464.25 90.75 465 89 467.25 88.125 471 86.875 470.875 86.125 473.25 88 474.625 90.625 477.125 93.25 477.5 95.5 475.625 95.75 474.25 97.125 471.375 98.875 470.75 100.125 472.875 102.125 472.875 102.625 471.25 105 470.875 106.75 473 109.75 473 111.125 471.5 115.75 468.625 117 469.125 119.75 470.5 121.25 472.875 124.5 472.375 125.125 471.125 127.25 471.375 129.875 470.25 133.75 470.75 138 475.625 143.25 475.875 143.875 473.25 141.625 472.375 141.125 470.5 143.625 468.375 143.375 463 144.75 459.125 151.875 459.875 157 455.5 157 453.125 158.75 451.875 162 451.5 163.25 449.625 167.125 445 169.75 441.375 173.5 439.625 178.375 436 180.5 436.625 187 440.625 187.125 444.75 188.625 445.375 190.25 445.375 190.875 444.375 192.125 444.75 191.992 446.144 200.272 446.971 212.248 456.894"/>
  <polygon class="cls-1" points="361.616 407.298 359.419 408.867 352.25 404.716 344.922 400.055 316.052 385.291 313.666 385.557 304.044 388.871 295.044 391.204 287.318 392.96 281.47 391.498 278.737 396.966 275.775 407.168 272.69 419.06 269.398 426.009 256.285 429.707 247.926 442.568 242.041 451.101 249.184 448.665 256.201 445.791 261.643 441.031 270.028 439.283 277.662 437.451 280.225 432.743 284.928 427.568 288.996 434.484 294.733 436.205 300.907 434.921 306.034 434.6 312.958 432.177 325.881 435.918 330.501 435.918 330.501 433.599 336.704 429.613 341.616 433.051 340.865 438.311 343.775 448.333 345.311 452.549 343.869 455.145 356.234 467.208 365.176 466.591 370.611 465.815 371.168 458.031 371.168 448.508 372.85 443.461 373.499 433.399 373.134 423.88 376.751 421.907 376.561 419.822 372.019 415.885 365.702 410.566 361.616 407.298"/>
  <polygon class="cls-1" points="321.994 178.751 323.865 183.003 323.329 188.725 322.591 193.718 328.306 202.528 325.78 206.175 326.126 211.532 329.474 210.547 336.106 217.782 335.205 222.864 333.842 228.171 332.813 230.23 333.666 235.139 337.132 239.759 333.472 244.545 333.26 248.368 334.454 253.441 328.445 257.287 330.969 262.334 340.258 270.909 347.668 273.06 352.633 274.611 352.857 276.629 358.677 274 369.948 274.014 381.08 275.498 390.144 275.259 394.607 273.145 401.14 270.151 408.891 272.477 417.781 271.516 421.951 270.733 430.431 271.761 436.931 272.689 442.336 269.408 442.335 257.75 440.241 257.75 435.711 261.072 432.932 257.498 431.246 253.164 428.25 250.73 425.582 251.841 423.123 251.103 417.206 253.921 413.559 248.285 412.836 242.985 409.55 239.9 403.975 232.467 404.165 228.658 400.719 228.986 391.727 230.785 381.109 228.334 377.417 223.165 368.907 222.192 360.611 215.674 364.143 208.611 377.913 202.217 378.198 200.649 376.429 196.1 376.856 194.388 375.471 192.771 375.818 187.053 376.833 183.807 371.549 177.081 371.014 171.469 370.077 166.787 366.451 160.5 363.342 155.478 358.85 151.516 357.862 145.093 351.735 148.228 348.784 150.031 344.501 152.353 337.335 153.584 335.616 153.584 332.228 158.425 326.322 159.716 322.667 160.42 320.719 164.185 321.834 172.38 321.994 178.751"/>
  <polygon class="cls-1" points="455.82 272.954 460.831 270.903 466.497 267.555 472.5 266.75 478.875 266.75 490.723 273.069 496.241 279.843 506.157 285.647 518.553 290.508 526.773 290.724 527.908 288.455 533.927 277.169 536.686 271.457 536.383 271.401 535.744 265.654 536.235 258.894 534.471 252.306 528.098 240.417 523.956 234.593 522.502 226.194 521.981 214.877 526.334 207.415 525.076 194.833 515.595 201.1 511.166 200.947 505.818 209.799 502.008 209.587 494.354 210.065 490.372 211.772 485.185 220.417 480.647 220.417 477.199 218.694 474.755 219.437 472.22 229.748 467.934 230.407 466.727 236.444 459.789 244.248 451.667 252.332 445.335 256.554 445.335 268.643 451.756 272.311 455.82 272.954"/>
  <polygon class="cls-1" points="430.038 274.735 422.049 273.768 418.161 274.492 408.609 275.524 401.36 273.35 395.875 275.864 390.856 278.242 380.92 278.503 369.65 277 359.323 277 353.205 279.764 353.32 280.801 349.469 284.652 349.219 289.652 344.709 294.163 342.593 297.972 346.59 300.346 346.515 300.439 350.229 302.857 353.104 305.784 354.065 307.306 355.326 305.955 360.702 304.101 366.437 303.719 368.728 305.355 374.987 304.553 387.464 308.77 391.777 312.894 393.689 317.751 396.137 317.751 400.872 315.325 407.688 313.114 413.911 316.847 414.445 321.659 416.17 323.843 422.237 318.058 425.777 313.878 429.321 311.259 430.543 308.814 431.427 301.394 437.013 297.603 440.396 297.463 441.811 293.073 445.808 287.412 446.269 285.937 442.865 283.153 442.424 272.864 437.569 275.811 430.038 274.735"/>
  <polygon class="cls-1" points="525.293 293.686 517.947 293.493 504.742 288.295 494.259 282.158 488.777 275.432 478.125 269.75 472.602 269.75 467.503 270.446 462.068 273.639 456.18 276.047 450.744 275.189 445.394 272.132 445.805 281.683 449.735 284.898 448.53 288.757 444.526 294.429 442.608 300.373 437.991 300.565 434.243 303.108 433.461 309.688 431.683 313.244 427.706 316.183 424.37 320.17 418.29 325.968 419.482 327.082 419.66 332.96 420.983 336.533 423.693 337.357 428.148 336.159 432.324 338.202 434.942 333.186 439.035 329.094 450.039 328.916 455.181 329.271 467.074 334.199 479.524 338.845 493.763 343.812 500.554 345.51 504.397 347.634 508.12 338.912 520.768 311.988 527.801 297.303 528.108 295.309 525.264 293.745 525.293 293.686"/>
  <path class="cls-2" d="M891.791,631.464s10-23,35.334-27c0,0,16.666,1.333,24.666-5.333,0,0,17.637-15.971,26.311-14.004l-4.775,4.081-2.832,4.247-1.759,1.918-6.59,3.152-7.758,4.381-7.139,5.753-3.176,2.021-1.982-.147a42.36245,42.36245,0,0,0-12.419-.257l-2.605.104-5.517,1.084-3.588,2.332a36.53547,36.53547,0,0,0-7.007,4.554l-3.277,2.131-1.459,2.495a52.57122,52.57122,0,0,0-8.094,12.821l-1.41,3.703-13.93,32.365-9.617,16.251-1.629,4.133c-1.166,1.89-2.172,3.414-2.924,4.39l-1.197.798-4.134,5.408-5.196.975-5.17,4.826-6.68,3.498-10.953,3.043a51.483,51.483,0,0,1-10.629.415l-8.416-2.243-8.564.95-3.157-3.156-4.552-3.516-10.199-6.909-7.218-7.56-8.225-1.646c-7.012-2.44-17.327-5.942-18.2-5.724l-10.666-3.334a17.63735,17.63735,0,0,0-5.322-.768l-1.847-.384-2.156.958a11.72731,11.72731,0,0,0-2.767,1.229l-1.823.811-4.505,5.199-7.282,6.951-.708.894-2.924,2.777-4.907,4.171-1.763,1.101-4.82,5.857-2.312,3.453h-3.485l-2.639,5.649-3.325,3.565a10.27037,10.27037,0,0,1-3.749,1.205s-5.668-.001-8.668,6.333a19.13732,19.13732,0,0,1-7.004,6.305l-3.135.921-6.264-.642-5.932-.382-1.347,1.636a5.635,5.635,0,0,0-1.985,1.829,4.31227,4.31227,0,0,1-1.231,1.107l-5.716-4.572-1.159.827a4.72156,4.72156,0,0,0-1.754.681l-5-2.894-7.333-4.667-29.456-15.07-.401-.204-2.375.263-.909-.471s-2.94,1.355-7.127,2.964l-2.972,1.014-8.899,2.308-6.984,1.588-5.309-1.328-.068-.61,11.39-2.399,9.425-2.358,9.588-3.052-14.904-16.022-8.286-9.667-7.088-2.126-5.596-.645c-.206-.057-.42-.119-.637-.183l-3.678-1.98-2.546-2.183-15.653-2.134-1.317.847-.338-.033s-.148.21-.41.515l-2.318,1.489-2.44-1.33-2.61-5.871-21.66-17.26-11.842-8.797-6.988-2.541c-.109-.089-.224-.182-.345-.277l-4.738-5.753-4.13.414.079.791-8.364-7.166-13.361-10.021-18.699-13.355-13.301-8.978-9.333-6.667-18.461-8.091-16.153-11.538-11.189-9.543-10.193-12.161-7.458-10.17-5.434-4.199-.123.1a4.1003,4.1003,0,0,0-1.195-.59s3.667-7,11.333,0c0,0,22.667,30.333,36,31.333,0,0,18,9.667,24.667,15,0,0,17,15.333,25.333,12.667l6.897-1.592,1.955,1.598,10.624,7.637,9.938,6.954,6.87,5.361,9.393,6.875,8.778,5.796,8.062,6.418,6.952,6.621,8.658,5.633,8.18,6.508,10.847,7.626,6.568,2.19,7.135-1.252,5.344-1.295,6.238-.153,3.793,2.276,6.99,3.5,3.236-1.078,3.066.511,2.233,2.792,6.039,10.656h2.058l7.529,2.905,5.227,7.227,1.265,5.535,2.531,7.083,3.561,2.769,4.528,1.394,2.721,1.12,3.845,1.923,2.4,1.714,8.64,3.219,9.333,3.833,10.117,3.209,6.944.423,5.861-3.02,7.621-4.736,10.104-6.461,6.248-3.57,2.273-4.896,4.426-4.898,3.449-2.666,7.79-3.982,4.515-8.333,4.369-6.219.015.008.059-.111.635-.904-.114-.095,2.647-5.071,2.907-2.908,9.663-.156,4.525.311,11.49,4.76,12.53,4.677,14.333,5,6.607,1.658,3.768,2.082-.019.043,1.245.635,1.167.646.022-.039,4.939,2.521,11.609,4.801,16.027,4.118,12.724-.39,10.042-3.883,4.756-6.869,2.242-3.187,8.317-6.36,7.749-8.615,6.13-7.479,3.864-2.834,2.91-5.291,1.746-6.41,3.67-10.641,2.625-3.939Z" transform="translate(-286.125 -334.12799)"/>
  <text class="cls-3" transform="translate(418.28998 214.32733)">성북구</text>
  <text class="cls-3" transform="translate(410.87341 138.71741)">강북구</text>
  <text class="cls-3" transform="translate(442.55957 80.05597)">도봉구</text>
  <text class="cls-3" transform="translate(517.04529 110.80609)">노원구</text>
  <text class="cls-3" transform="translate(546.06848 223.38623)">중랑구</text>
  <text class="cls-3" transform="translate(477.08594 250.25043)">동대문구</text>
  <text class="cls-3" transform="translate(536.79297 323.84332)">광진구</text>
  <text class="cls-3" transform="translate(638.31226 323.84332)">강동구</text>
  <text class="cls-3" transform="translate(596.5 417.8338)">송파구</text>
  <text class="cls-3" transform="translate(500.97363 442.1535)">강남구</text>
  <text class="cls-3" transform="translate(432.1416 471.40643)">서초구</text>
  <text class="cls-3" transform="translate(302.51288 501.50043)">관악구</text>
  <text class="cls-3" transform="translate(221.96179 512.10364)">금천구</text>
  <text class="cls-3" transform="translate(124.98291 431.76752)">구로구</text>
  <text class="cls-3" transform="translate(222.47791 386.89789)">영등포구</text>
  <text class="cls-3" transform="translate(316.01221 418.87769)">동작구</text>
  <text class="cls-3" transform="translate(141.04492 383.49359)">양천구</text>
  <text class="cls-3" transform="translate(93.93384 298.35352)">강서구</text>
  <text class="cls-3" transform="translate(242.04102 308.6922)">마포구</text>
  <text class="cls-3" transform="translate(357.38092 350.31683)">용산구</text>
  <path class="cls-1" d="M510.444,582.913l12.881,10.581,15.667-16.752,2.167-5.851,7.007,3.866.722,4.768,7.208-.995.85-3.256,1.523-1.523,1.785-5.867,2.881,2.881,2.508-.448-.348-3.105v-5.07l5.86-6.593,8.601-5.266,3.984-.693,3.091-1.124,1.218-1.772-.378-2.267-1.625-4.472,2.958-2.746,2.198-2.998h4.138l1.387-2.017,3.369-4.494,3.455-.768,2.394-.838.534-3.604.454-4.866-1.796-4.081-.172-6.879-1.22-8.888,3.053-5.902,5.048-.971,4.724-1.034,3.612-5.16h3.15l6.297-1.102,3.785-2.05,3.031-1.85,7.062-3.614-.09-.586-4.541-4.632-1.375-7.125-5.375-7-6.375-4.125-.75-7.25-3-2.375-5.625-8.5-5.75-4.875c-6.5-.375-11.875-8.5-11.875-8.5l-13.875,8.125-3.125,6.5c-4.875,5.25-10,2.625-10,2.625l-14.625,10-5.25.875c-7.625,5.5-17.875-4.75-17.875-4.75l-2.375-.375L531,445.503l-.375,2L532,449.128l2.125,2.75-.125,2.25v2.25l.625,1.375,1.375,3,.375,1.625-.75.875-.375,3.375.375,1.5.5,1.5-.5,2.125-2,1.25-1.5,1.75-2.5,3.25-.5,2.75,1.25,1.875,2.75,3.5-.25,4.25-.75,2.125-2.25,2-.5,1.125-.125,2,.875,1.625.625,1.375-2.375,1.625-1.875,2.375-1.625,2.375-2.625,2.75-.375,2.625-.875,4.5-1.125,1.125-.125,1.875,1,1.875,1.25,2,.625,3.75-.375,1.875-1.125.75-.375,1.625.75,1.625,1,1.75.125,1.5-1,1-1.875,1.625-.25,3.25,1.5,3.625v1.625l-.625,1.5.375,1.75,1.375,2-.375,2.5-2.25,1.375-1.75,2.25.125,5.125.5,2-3.375,1-3.125.375-1-.875-2.875-.25-1.875,2.25-1.5.375-1.375-1.75h-1.875l-2.375.25-1.25-1.125-1.125-2.375.125-2.125,2.375-2.375-.875-1.5-2.5-2.125-1.75,1.25-3,4-2.06,1.797,11.399,11.086Z" transform="translate(-286.125 -334.12799)"/>
  <text class="cls-3" transform="translate(266.10968 180.35254)">은평구</text>
  <text class="cls-3" transform="translate(356.16888 251.29443)">종로구</text>
  <text class="cls-3" transform="translate(464.7334 309.72443)">성동구</text>
  <text class="cls-3" transform="translate(382.83112 298.35339)">중구</text>
  <text class="cls-3" transform="translate(274.63281 266.41992)">서대문구</text>
</svg>
